G04 #@! TF.GenerationSoftware,KiCad,Pcbnew,7.0.6*
G04 #@! TF.CreationDate,2023-07-10T12:59:01+01:00*
G04 #@! TF.ProjectId,wireless_rainmeter_42x54x1_6mm,77697265-6c65-4737-935f-7261696e6d65,5.3*
G04 #@! TF.SameCoordinates,Original*
G04 #@! TF.FileFunction,Soldermask,Bot*
G04 #@! TF.FilePolarity,Negative*
%FSLAX46Y46*%
G04 Gerber Fmt 4.6, Leading zero omitted, Abs format (unit mm)*
G04 Created by KiCad (PCBNEW 7.0.6) date 2023-07-10 12:59:01*
%MOMM*%
%LPD*%
G01*
G04 APERTURE LIST*
%ADD10C,0.100000*%
%ADD11C,0.150000*%
%ADD12C,0.300000*%
%ADD13C,0.400000*%
%ADD14O,1.500000X0.800000*%
%ADD15C,0.700000*%
%ADD16R,1.050000X1.100000*%
%ADD17R,1.100000X2.250000*%
G04 #@! TA.AperFunction,Profile*
%ADD18C,0.100000*%
G04 #@! TD*
G04 APERTURE END LIST*
D10*
D11*
X177002200Y-166007200D02*
X285002200Y-166007200D01*
X285002200Y-198007200D01*
X177002200Y-198007200D01*
X177002200Y-166007200D01*
D10*
D11*
X10000000Y-10000000D02*
X287002200Y-10000000D01*
X287002200Y-200007200D01*
X10000000Y-200007200D01*
X10000000Y-10000000D01*
D10*
D11*
X12000000Y-12000000D02*
X285002200Y-12000000D01*
X285002200Y-198007200D01*
X12000000Y-198007200D01*
X12000000Y-12000000D01*
D10*
D11*
X60000000Y-12000000D02*
X60000000Y-10000000D01*
D10*
D11*
X110000000Y-12000000D02*
X110000000Y-10000000D01*
D10*
D11*
X160000000Y-12000000D02*
X160000000Y-10000000D01*
D10*
D11*
X210000000Y-12000000D02*
X210000000Y-10000000D01*
D10*
D11*
X260000000Y-12000000D02*
X260000000Y-10000000D01*
D10*
D11*
X36089160Y-11593604D02*
X35346303Y-11593604D01*
X35717731Y-11593604D02*
X35717731Y-10293604D01*
X35717731Y-10293604D02*
X35593922Y-10479319D01*
X35593922Y-10479319D02*
X35470112Y-10603128D01*
X35470112Y-10603128D02*
X35346303Y-10665033D01*
D10*
D11*
X85346303Y-10417414D02*
X85408207Y-10355509D01*
X85408207Y-10355509D02*
X85532017Y-10293604D01*
X85532017Y-10293604D02*
X85841541Y-10293604D01*
X85841541Y-10293604D02*
X85965350Y-10355509D01*
X85965350Y-10355509D02*
X86027255Y-10417414D01*
X86027255Y-10417414D02*
X86089160Y-10541223D01*
X86089160Y-10541223D02*
X86089160Y-10665033D01*
X86089160Y-10665033D02*
X86027255Y-10850747D01*
X86027255Y-10850747D02*
X85284398Y-11593604D01*
X85284398Y-11593604D02*
X86089160Y-11593604D01*
D10*
D11*
X135284398Y-10293604D02*
X136089160Y-10293604D01*
X136089160Y-10293604D02*
X135655826Y-10788842D01*
X135655826Y-10788842D02*
X135841541Y-10788842D01*
X135841541Y-10788842D02*
X135965350Y-10850747D01*
X135965350Y-10850747D02*
X136027255Y-10912652D01*
X136027255Y-10912652D02*
X136089160Y-11036461D01*
X136089160Y-11036461D02*
X136089160Y-11345985D01*
X136089160Y-11345985D02*
X136027255Y-11469795D01*
X136027255Y-11469795D02*
X135965350Y-11531700D01*
X135965350Y-11531700D02*
X135841541Y-11593604D01*
X135841541Y-11593604D02*
X135470112Y-11593604D01*
X135470112Y-11593604D02*
X135346303Y-11531700D01*
X135346303Y-11531700D02*
X135284398Y-11469795D01*
D10*
D11*
X185965350Y-10726938D02*
X185965350Y-11593604D01*
X185655826Y-10231700D02*
X185346303Y-11160271D01*
X185346303Y-11160271D02*
X186151064Y-11160271D01*
D10*
D11*
X236027255Y-10293604D02*
X235408207Y-10293604D01*
X235408207Y-10293604D02*
X235346303Y-10912652D01*
X235346303Y-10912652D02*
X235408207Y-10850747D01*
X235408207Y-10850747D02*
X235532017Y-10788842D01*
X235532017Y-10788842D02*
X235841541Y-10788842D01*
X235841541Y-10788842D02*
X235965350Y-10850747D01*
X235965350Y-10850747D02*
X236027255Y-10912652D01*
X236027255Y-10912652D02*
X236089160Y-11036461D01*
X236089160Y-11036461D02*
X236089160Y-11345985D01*
X236089160Y-11345985D02*
X236027255Y-11469795D01*
X236027255Y-11469795D02*
X235965350Y-11531700D01*
X235965350Y-11531700D02*
X235841541Y-11593604D01*
X235841541Y-11593604D02*
X235532017Y-11593604D01*
X235532017Y-11593604D02*
X235408207Y-11531700D01*
X235408207Y-11531700D02*
X235346303Y-11469795D01*
D10*
D11*
X285965350Y-10293604D02*
X285717731Y-10293604D01*
X285717731Y-10293604D02*
X285593922Y-10355509D01*
X285593922Y-10355509D02*
X285532017Y-10417414D01*
X285532017Y-10417414D02*
X285408207Y-10603128D01*
X285408207Y-10603128D02*
X285346303Y-10850747D01*
X285346303Y-10850747D02*
X285346303Y-11345985D01*
X285346303Y-11345985D02*
X285408207Y-11469795D01*
X285408207Y-11469795D02*
X285470112Y-11531700D01*
X285470112Y-11531700D02*
X285593922Y-11593604D01*
X285593922Y-11593604D02*
X285841541Y-11593604D01*
X285841541Y-11593604D02*
X285965350Y-11531700D01*
X285965350Y-11531700D02*
X286027255Y-11469795D01*
X286027255Y-11469795D02*
X286089160Y-11345985D01*
X286089160Y-11345985D02*
X286089160Y-11036461D01*
X286089160Y-11036461D02*
X286027255Y-10912652D01*
X286027255Y-10912652D02*
X285965350Y-10850747D01*
X285965350Y-10850747D02*
X285841541Y-10788842D01*
X285841541Y-10788842D02*
X285593922Y-10788842D01*
X285593922Y-10788842D02*
X285470112Y-10850747D01*
X285470112Y-10850747D02*
X285408207Y-10912652D01*
X285408207Y-10912652D02*
X285346303Y-11036461D01*
D10*
D11*
X60000000Y-198007200D02*
X60000000Y-200007200D01*
D10*
D11*
X110000000Y-198007200D02*
X110000000Y-200007200D01*
D10*
D11*
X160000000Y-198007200D02*
X160000000Y-200007200D01*
D10*
D11*
X210000000Y-198007200D02*
X210000000Y-200007200D01*
D10*
D11*
X260000000Y-198007200D02*
X260000000Y-200007200D01*
D10*
D11*
X36089160Y-199600804D02*
X35346303Y-199600804D01*
X35717731Y-199600804D02*
X35717731Y-198300804D01*
X35717731Y-198300804D02*
X35593922Y-198486519D01*
X35593922Y-198486519D02*
X35470112Y-198610328D01*
X35470112Y-198610328D02*
X35346303Y-198672233D01*
D10*
D11*
X85346303Y-198424614D02*
X85408207Y-198362709D01*
X85408207Y-198362709D02*
X85532017Y-198300804D01*
X85532017Y-198300804D02*
X85841541Y-198300804D01*
X85841541Y-198300804D02*
X85965350Y-198362709D01*
X85965350Y-198362709D02*
X86027255Y-198424614D01*
X86027255Y-198424614D02*
X86089160Y-198548423D01*
X86089160Y-198548423D02*
X86089160Y-198672233D01*
X86089160Y-198672233D02*
X86027255Y-198857947D01*
X86027255Y-198857947D02*
X85284398Y-199600804D01*
X85284398Y-199600804D02*
X86089160Y-199600804D01*
D10*
D11*
X135284398Y-198300804D02*
X136089160Y-198300804D01*
X136089160Y-198300804D02*
X135655826Y-198796042D01*
X135655826Y-198796042D02*
X135841541Y-198796042D01*
X135841541Y-198796042D02*
X135965350Y-198857947D01*
X135965350Y-198857947D02*
X136027255Y-198919852D01*
X136027255Y-198919852D02*
X136089160Y-199043661D01*
X136089160Y-199043661D02*
X136089160Y-199353185D01*
X136089160Y-199353185D02*
X136027255Y-199476995D01*
X136027255Y-199476995D02*
X135965350Y-199538900D01*
X135965350Y-199538900D02*
X135841541Y-199600804D01*
X135841541Y-199600804D02*
X135470112Y-199600804D01*
X135470112Y-199600804D02*
X135346303Y-199538900D01*
X135346303Y-199538900D02*
X135284398Y-199476995D01*
D10*
D11*
X185965350Y-198734138D02*
X185965350Y-199600804D01*
X185655826Y-198238900D02*
X185346303Y-199167471D01*
X185346303Y-199167471D02*
X186151064Y-199167471D01*
D10*
D11*
X236027255Y-198300804D02*
X235408207Y-198300804D01*
X235408207Y-198300804D02*
X235346303Y-198919852D01*
X235346303Y-198919852D02*
X235408207Y-198857947D01*
X235408207Y-198857947D02*
X235532017Y-198796042D01*
X235532017Y-198796042D02*
X235841541Y-198796042D01*
X235841541Y-198796042D02*
X235965350Y-198857947D01*
X235965350Y-198857947D02*
X236027255Y-198919852D01*
X236027255Y-198919852D02*
X236089160Y-199043661D01*
X236089160Y-199043661D02*
X236089160Y-199353185D01*
X236089160Y-199353185D02*
X236027255Y-199476995D01*
X236027255Y-199476995D02*
X235965350Y-199538900D01*
X235965350Y-199538900D02*
X235841541Y-199600804D01*
X235841541Y-199600804D02*
X235532017Y-199600804D01*
X235532017Y-199600804D02*
X235408207Y-199538900D01*
X235408207Y-199538900D02*
X235346303Y-199476995D01*
D10*
D11*
X285965350Y-198300804D02*
X285717731Y-198300804D01*
X285717731Y-198300804D02*
X285593922Y-198362709D01*
X285593922Y-198362709D02*
X285532017Y-198424614D01*
X285532017Y-198424614D02*
X285408207Y-198610328D01*
X285408207Y-198610328D02*
X285346303Y-198857947D01*
X285346303Y-198857947D02*
X285346303Y-199353185D01*
X285346303Y-199353185D02*
X285408207Y-199476995D01*
X285408207Y-199476995D02*
X285470112Y-199538900D01*
X285470112Y-199538900D02*
X285593922Y-199600804D01*
X285593922Y-199600804D02*
X285841541Y-199600804D01*
X285841541Y-199600804D02*
X285965350Y-199538900D01*
X285965350Y-199538900D02*
X286027255Y-199476995D01*
X286027255Y-199476995D02*
X286089160Y-199353185D01*
X286089160Y-199353185D02*
X286089160Y-199043661D01*
X286089160Y-199043661D02*
X286027255Y-198919852D01*
X286027255Y-198919852D02*
X285965350Y-198857947D01*
X285965350Y-198857947D02*
X285841541Y-198796042D01*
X285841541Y-198796042D02*
X285593922Y-198796042D01*
X285593922Y-198796042D02*
X285470112Y-198857947D01*
X285470112Y-198857947D02*
X285408207Y-198919852D01*
X285408207Y-198919852D02*
X285346303Y-199043661D01*
D10*
D11*
X10000000Y-60000000D02*
X12000000Y-60000000D01*
D10*
D11*
X10000000Y-110000000D02*
X12000000Y-110000000D01*
D10*
D11*
X10000000Y-160000000D02*
X12000000Y-160000000D01*
D10*
D11*
X10690476Y-35222176D02*
X11309523Y-35222176D01*
X10566666Y-35593604D02*
X10999999Y-34293604D01*
X10999999Y-34293604D02*
X11433333Y-35593604D01*
D10*
D11*
X11092857Y-84912652D02*
X11278571Y-84974557D01*
X11278571Y-84974557D02*
X11340476Y-85036461D01*
X11340476Y-85036461D02*
X11402380Y-85160271D01*
X11402380Y-85160271D02*
X11402380Y-85345985D01*
X11402380Y-85345985D02*
X11340476Y-85469795D01*
X11340476Y-85469795D02*
X11278571Y-85531700D01*
X11278571Y-85531700D02*
X11154761Y-85593604D01*
X11154761Y-85593604D02*
X10659523Y-85593604D01*
X10659523Y-85593604D02*
X10659523Y-84293604D01*
X10659523Y-84293604D02*
X11092857Y-84293604D01*
X11092857Y-84293604D02*
X11216666Y-84355509D01*
X11216666Y-84355509D02*
X11278571Y-84417414D01*
X11278571Y-84417414D02*
X11340476Y-84541223D01*
X11340476Y-84541223D02*
X11340476Y-84665033D01*
X11340476Y-84665033D02*
X11278571Y-84788842D01*
X11278571Y-84788842D02*
X11216666Y-84850747D01*
X11216666Y-84850747D02*
X11092857Y-84912652D01*
X11092857Y-84912652D02*
X10659523Y-84912652D01*
D10*
D11*
X11402380Y-135469795D02*
X11340476Y-135531700D01*
X11340476Y-135531700D02*
X11154761Y-135593604D01*
X11154761Y-135593604D02*
X11030952Y-135593604D01*
X11030952Y-135593604D02*
X10845238Y-135531700D01*
X10845238Y-135531700D02*
X10721428Y-135407890D01*
X10721428Y-135407890D02*
X10659523Y-135284080D01*
X10659523Y-135284080D02*
X10597619Y-135036461D01*
X10597619Y-135036461D02*
X10597619Y-134850747D01*
X10597619Y-134850747D02*
X10659523Y-134603128D01*
X10659523Y-134603128D02*
X10721428Y-134479319D01*
X10721428Y-134479319D02*
X10845238Y-134355509D01*
X10845238Y-134355509D02*
X11030952Y-134293604D01*
X11030952Y-134293604D02*
X11154761Y-134293604D01*
X11154761Y-134293604D02*
X11340476Y-134355509D01*
X11340476Y-134355509D02*
X11402380Y-134417414D01*
D10*
D11*
X10659523Y-185593604D02*
X10659523Y-184293604D01*
X10659523Y-184293604D02*
X10969047Y-184293604D01*
X10969047Y-184293604D02*
X11154761Y-184355509D01*
X11154761Y-184355509D02*
X11278571Y-184479319D01*
X11278571Y-184479319D02*
X11340476Y-184603128D01*
X11340476Y-184603128D02*
X11402380Y-184850747D01*
X11402380Y-184850747D02*
X11402380Y-185036461D01*
X11402380Y-185036461D02*
X11340476Y-185284080D01*
X11340476Y-185284080D02*
X11278571Y-185407890D01*
X11278571Y-185407890D02*
X11154761Y-185531700D01*
X11154761Y-185531700D02*
X10969047Y-185593604D01*
X10969047Y-185593604D02*
X10659523Y-185593604D01*
D10*
D11*
X287002200Y-60000000D02*
X285002200Y-60000000D01*
D10*
D11*
X287002200Y-110000000D02*
X285002200Y-110000000D01*
D10*
D11*
X287002200Y-160000000D02*
X285002200Y-160000000D01*
D10*
D11*
X285692676Y-35222176D02*
X286311723Y-35222176D01*
X285568866Y-35593604D02*
X286002199Y-34293604D01*
X286002199Y-34293604D02*
X286435533Y-35593604D01*
D10*
D11*
X286095057Y-84912652D02*
X286280771Y-84974557D01*
X286280771Y-84974557D02*
X286342676Y-85036461D01*
X286342676Y-85036461D02*
X286404580Y-85160271D01*
X286404580Y-85160271D02*
X286404580Y-85345985D01*
X286404580Y-85345985D02*
X286342676Y-85469795D01*
X286342676Y-85469795D02*
X286280771Y-85531700D01*
X286280771Y-85531700D02*
X286156961Y-85593604D01*
X286156961Y-85593604D02*
X285661723Y-85593604D01*
X285661723Y-85593604D02*
X285661723Y-84293604D01*
X285661723Y-84293604D02*
X286095057Y-84293604D01*
X286095057Y-84293604D02*
X286218866Y-84355509D01*
X286218866Y-84355509D02*
X286280771Y-84417414D01*
X286280771Y-84417414D02*
X286342676Y-84541223D01*
X286342676Y-84541223D02*
X286342676Y-84665033D01*
X286342676Y-84665033D02*
X286280771Y-84788842D01*
X286280771Y-84788842D02*
X286218866Y-84850747D01*
X286218866Y-84850747D02*
X286095057Y-84912652D01*
X286095057Y-84912652D02*
X285661723Y-84912652D01*
D10*
D11*
X286404580Y-135469795D02*
X286342676Y-135531700D01*
X286342676Y-135531700D02*
X286156961Y-135593604D01*
X286156961Y-135593604D02*
X286033152Y-135593604D01*
X286033152Y-135593604D02*
X285847438Y-135531700D01*
X285847438Y-135531700D02*
X285723628Y-135407890D01*
X285723628Y-135407890D02*
X285661723Y-135284080D01*
X285661723Y-135284080D02*
X285599819Y-135036461D01*
X285599819Y-135036461D02*
X285599819Y-134850747D01*
X285599819Y-134850747D02*
X285661723Y-134603128D01*
X285661723Y-134603128D02*
X285723628Y-134479319D01*
X285723628Y-134479319D02*
X285847438Y-134355509D01*
X285847438Y-134355509D02*
X286033152Y-134293604D01*
X286033152Y-134293604D02*
X286156961Y-134293604D01*
X286156961Y-134293604D02*
X286342676Y-134355509D01*
X286342676Y-134355509D02*
X286404580Y-134417414D01*
D10*
D11*
X285661723Y-185593604D02*
X285661723Y-184293604D01*
X285661723Y-184293604D02*
X285971247Y-184293604D01*
X285971247Y-184293604D02*
X286156961Y-184355509D01*
X286156961Y-184355509D02*
X286280771Y-184479319D01*
X286280771Y-184479319D02*
X286342676Y-184603128D01*
X286342676Y-184603128D02*
X286404580Y-184850747D01*
X286404580Y-184850747D02*
X286404580Y-185036461D01*
X286404580Y-185036461D02*
X286342676Y-185284080D01*
X286342676Y-185284080D02*
X286280771Y-185407890D01*
X286280771Y-185407890D02*
X286156961Y-185531700D01*
X286156961Y-185531700D02*
X285971247Y-185593604D01*
X285971247Y-185593604D02*
X285661723Y-185593604D01*
D10*
D11*
X200458026Y-193793328D02*
X200458026Y-192293328D01*
X200458026Y-192293328D02*
X200815169Y-192293328D01*
X200815169Y-192293328D02*
X201029455Y-192364757D01*
X201029455Y-192364757D02*
X201172312Y-192507614D01*
X201172312Y-192507614D02*
X201243741Y-192650471D01*
X201243741Y-192650471D02*
X201315169Y-192936185D01*
X201315169Y-192936185D02*
X201315169Y-193150471D01*
X201315169Y-193150471D02*
X201243741Y-193436185D01*
X201243741Y-193436185D02*
X201172312Y-193579042D01*
X201172312Y-193579042D02*
X201029455Y-193721900D01*
X201029455Y-193721900D02*
X200815169Y-193793328D01*
X200815169Y-193793328D02*
X200458026Y-193793328D01*
X202600884Y-193793328D02*
X202600884Y-193007614D01*
X202600884Y-193007614D02*
X202529455Y-192864757D01*
X202529455Y-192864757D02*
X202386598Y-192793328D01*
X202386598Y-192793328D02*
X202100884Y-192793328D01*
X202100884Y-192793328D02*
X201958026Y-192864757D01*
X202600884Y-193721900D02*
X202458026Y-193793328D01*
X202458026Y-193793328D02*
X202100884Y-193793328D01*
X202100884Y-193793328D02*
X201958026Y-193721900D01*
X201958026Y-193721900D02*
X201886598Y-193579042D01*
X201886598Y-193579042D02*
X201886598Y-193436185D01*
X201886598Y-193436185D02*
X201958026Y-193293328D01*
X201958026Y-193293328D02*
X202100884Y-193221900D01*
X202100884Y-193221900D02*
X202458026Y-193221900D01*
X202458026Y-193221900D02*
X202600884Y-193150471D01*
X203100884Y-192793328D02*
X203672312Y-192793328D01*
X203315169Y-192293328D02*
X203315169Y-193579042D01*
X203315169Y-193579042D02*
X203386598Y-193721900D01*
X203386598Y-193721900D02*
X203529455Y-193793328D01*
X203529455Y-193793328D02*
X203672312Y-193793328D01*
X204743741Y-193721900D02*
X204600884Y-193793328D01*
X204600884Y-193793328D02*
X204315170Y-193793328D01*
X204315170Y-193793328D02*
X204172312Y-193721900D01*
X204172312Y-193721900D02*
X204100884Y-193579042D01*
X204100884Y-193579042D02*
X204100884Y-193007614D01*
X204100884Y-193007614D02*
X204172312Y-192864757D01*
X204172312Y-192864757D02*
X204315170Y-192793328D01*
X204315170Y-192793328D02*
X204600884Y-192793328D01*
X204600884Y-192793328D02*
X204743741Y-192864757D01*
X204743741Y-192864757D02*
X204815170Y-193007614D01*
X204815170Y-193007614D02*
X204815170Y-193150471D01*
X204815170Y-193150471D02*
X204100884Y-193293328D01*
X205458026Y-193650471D02*
X205529455Y-193721900D01*
X205529455Y-193721900D02*
X205458026Y-193793328D01*
X205458026Y-193793328D02*
X205386598Y-193721900D01*
X205386598Y-193721900D02*
X205458026Y-193650471D01*
X205458026Y-193650471D02*
X205458026Y-193793328D01*
X205458026Y-192864757D02*
X205529455Y-192936185D01*
X205529455Y-192936185D02*
X205458026Y-193007614D01*
X205458026Y-193007614D02*
X205386598Y-192936185D01*
X205386598Y-192936185D02*
X205458026Y-192864757D01*
X205458026Y-192864757D02*
X205458026Y-193007614D01*
X207243741Y-192436185D02*
X207315169Y-192364757D01*
X207315169Y-192364757D02*
X207458027Y-192293328D01*
X207458027Y-192293328D02*
X207815169Y-192293328D01*
X207815169Y-192293328D02*
X207958027Y-192364757D01*
X207958027Y-192364757D02*
X208029455Y-192436185D01*
X208029455Y-192436185D02*
X208100884Y-192579042D01*
X208100884Y-192579042D02*
X208100884Y-192721900D01*
X208100884Y-192721900D02*
X208029455Y-192936185D01*
X208029455Y-192936185D02*
X207172312Y-193793328D01*
X207172312Y-193793328D02*
X208100884Y-193793328D01*
X209029455Y-192293328D02*
X209172312Y-192293328D01*
X209172312Y-192293328D02*
X209315169Y-192364757D01*
X209315169Y-192364757D02*
X209386598Y-192436185D01*
X209386598Y-192436185D02*
X209458026Y-192579042D01*
X209458026Y-192579042D02*
X209529455Y-192864757D01*
X209529455Y-192864757D02*
X209529455Y-193221900D01*
X209529455Y-193221900D02*
X209458026Y-193507614D01*
X209458026Y-193507614D02*
X209386598Y-193650471D01*
X209386598Y-193650471D02*
X209315169Y-193721900D01*
X209315169Y-193721900D02*
X209172312Y-193793328D01*
X209172312Y-193793328D02*
X209029455Y-193793328D01*
X209029455Y-193793328D02*
X208886598Y-193721900D01*
X208886598Y-193721900D02*
X208815169Y-193650471D01*
X208815169Y-193650471D02*
X208743740Y-193507614D01*
X208743740Y-193507614D02*
X208672312Y-193221900D01*
X208672312Y-193221900D02*
X208672312Y-192864757D01*
X208672312Y-192864757D02*
X208743740Y-192579042D01*
X208743740Y-192579042D02*
X208815169Y-192436185D01*
X208815169Y-192436185D02*
X208886598Y-192364757D01*
X208886598Y-192364757D02*
X209029455Y-192293328D01*
X210100883Y-192436185D02*
X210172311Y-192364757D01*
X210172311Y-192364757D02*
X210315169Y-192293328D01*
X210315169Y-192293328D02*
X210672311Y-192293328D01*
X210672311Y-192293328D02*
X210815169Y-192364757D01*
X210815169Y-192364757D02*
X210886597Y-192436185D01*
X210886597Y-192436185D02*
X210958026Y-192579042D01*
X210958026Y-192579042D02*
X210958026Y-192721900D01*
X210958026Y-192721900D02*
X210886597Y-192936185D01*
X210886597Y-192936185D02*
X210029454Y-193793328D01*
X210029454Y-193793328D02*
X210958026Y-193793328D01*
X212386597Y-193793328D02*
X211529454Y-193793328D01*
X211958025Y-193793328D02*
X211958025Y-192293328D01*
X211958025Y-192293328D02*
X211815168Y-192507614D01*
X211815168Y-192507614D02*
X211672311Y-192650471D01*
X211672311Y-192650471D02*
X211529454Y-192721900D01*
X213029453Y-193221900D02*
X214172311Y-193221900D01*
X215672311Y-193793328D02*
X214815168Y-193793328D01*
X215243739Y-193793328D02*
X215243739Y-192293328D01*
X215243739Y-192293328D02*
X215100882Y-192507614D01*
X215100882Y-192507614D02*
X214958025Y-192650471D01*
X214958025Y-192650471D02*
X214815168Y-192721900D01*
X216243739Y-192436185D02*
X216315167Y-192364757D01*
X216315167Y-192364757D02*
X216458025Y-192293328D01*
X216458025Y-192293328D02*
X216815167Y-192293328D01*
X216815167Y-192293328D02*
X216958025Y-192364757D01*
X216958025Y-192364757D02*
X217029453Y-192436185D01*
X217029453Y-192436185D02*
X217100882Y-192579042D01*
X217100882Y-192579042D02*
X217100882Y-192721900D01*
X217100882Y-192721900D02*
X217029453Y-192936185D01*
X217029453Y-192936185D02*
X216172310Y-193793328D01*
X216172310Y-193793328D02*
X217100882Y-193793328D01*
X217743738Y-193221900D02*
X218886596Y-193221900D01*
X219529453Y-192436185D02*
X219600881Y-192364757D01*
X219600881Y-192364757D02*
X219743739Y-192293328D01*
X219743739Y-192293328D02*
X220100881Y-192293328D01*
X220100881Y-192293328D02*
X220243739Y-192364757D01*
X220243739Y-192364757D02*
X220315167Y-192436185D01*
X220315167Y-192436185D02*
X220386596Y-192579042D01*
X220386596Y-192579042D02*
X220386596Y-192721900D01*
X220386596Y-192721900D02*
X220315167Y-192936185D01*
X220315167Y-192936185D02*
X219458024Y-193793328D01*
X219458024Y-193793328D02*
X220386596Y-193793328D01*
X221243738Y-192936185D02*
X221100881Y-192864757D01*
X221100881Y-192864757D02*
X221029452Y-192793328D01*
X221029452Y-192793328D02*
X220958024Y-192650471D01*
X220958024Y-192650471D02*
X220958024Y-192579042D01*
X220958024Y-192579042D02*
X221029452Y-192436185D01*
X221029452Y-192436185D02*
X221100881Y-192364757D01*
X221100881Y-192364757D02*
X221243738Y-192293328D01*
X221243738Y-192293328D02*
X221529452Y-192293328D01*
X221529452Y-192293328D02*
X221672310Y-192364757D01*
X221672310Y-192364757D02*
X221743738Y-192436185D01*
X221743738Y-192436185D02*
X221815167Y-192579042D01*
X221815167Y-192579042D02*
X221815167Y-192650471D01*
X221815167Y-192650471D02*
X221743738Y-192793328D01*
X221743738Y-192793328D02*
X221672310Y-192864757D01*
X221672310Y-192864757D02*
X221529452Y-192936185D01*
X221529452Y-192936185D02*
X221243738Y-192936185D01*
X221243738Y-192936185D02*
X221100881Y-193007614D01*
X221100881Y-193007614D02*
X221029452Y-193079042D01*
X221029452Y-193079042D02*
X220958024Y-193221900D01*
X220958024Y-193221900D02*
X220958024Y-193507614D01*
X220958024Y-193507614D02*
X221029452Y-193650471D01*
X221029452Y-193650471D02*
X221100881Y-193721900D01*
X221100881Y-193721900D02*
X221243738Y-193793328D01*
X221243738Y-193793328D02*
X221529452Y-193793328D01*
X221529452Y-193793328D02*
X221672310Y-193721900D01*
X221672310Y-193721900D02*
X221743738Y-193650471D01*
X221743738Y-193650471D02*
X221815167Y-193507614D01*
X221815167Y-193507614D02*
X221815167Y-193221900D01*
X221815167Y-193221900D02*
X221743738Y-193079042D01*
X221743738Y-193079042D02*
X221672310Y-193007614D01*
X221672310Y-193007614D02*
X221529452Y-192936185D01*
D10*
D11*
X177002200Y-194507200D02*
X285002200Y-194507200D01*
D10*
D11*
X178458026Y-196593328D02*
X178458026Y-195093328D01*
X179315169Y-196593328D02*
X178672312Y-195736185D01*
X179315169Y-195093328D02*
X178458026Y-195950471D01*
X179958026Y-196593328D02*
X179958026Y-195593328D01*
X179958026Y-195093328D02*
X179886598Y-195164757D01*
X179886598Y-195164757D02*
X179958026Y-195236185D01*
X179958026Y-195236185D02*
X180029455Y-195164757D01*
X180029455Y-195164757D02*
X179958026Y-195093328D01*
X179958026Y-195093328D02*
X179958026Y-195236185D01*
X181529455Y-196450471D02*
X181458027Y-196521900D01*
X181458027Y-196521900D02*
X181243741Y-196593328D01*
X181243741Y-196593328D02*
X181100884Y-196593328D01*
X181100884Y-196593328D02*
X180886598Y-196521900D01*
X180886598Y-196521900D02*
X180743741Y-196379042D01*
X180743741Y-196379042D02*
X180672312Y-196236185D01*
X180672312Y-196236185D02*
X180600884Y-195950471D01*
X180600884Y-195950471D02*
X180600884Y-195736185D01*
X180600884Y-195736185D02*
X180672312Y-195450471D01*
X180672312Y-195450471D02*
X180743741Y-195307614D01*
X180743741Y-195307614D02*
X180886598Y-195164757D01*
X180886598Y-195164757D02*
X181100884Y-195093328D01*
X181100884Y-195093328D02*
X181243741Y-195093328D01*
X181243741Y-195093328D02*
X181458027Y-195164757D01*
X181458027Y-195164757D02*
X181529455Y-195236185D01*
X182815170Y-196593328D02*
X182815170Y-195807614D01*
X182815170Y-195807614D02*
X182743741Y-195664757D01*
X182743741Y-195664757D02*
X182600884Y-195593328D01*
X182600884Y-195593328D02*
X182315170Y-195593328D01*
X182315170Y-195593328D02*
X182172312Y-195664757D01*
X182815170Y-196521900D02*
X182672312Y-196593328D01*
X182672312Y-196593328D02*
X182315170Y-196593328D01*
X182315170Y-196593328D02*
X182172312Y-196521900D01*
X182172312Y-196521900D02*
X182100884Y-196379042D01*
X182100884Y-196379042D02*
X182100884Y-196236185D01*
X182100884Y-196236185D02*
X182172312Y-196093328D01*
X182172312Y-196093328D02*
X182315170Y-196021900D01*
X182315170Y-196021900D02*
X182672312Y-196021900D01*
X182672312Y-196021900D02*
X182815170Y-195950471D01*
X184172313Y-196593328D02*
X184172313Y-195093328D01*
X184172313Y-196521900D02*
X184029455Y-196593328D01*
X184029455Y-196593328D02*
X183743741Y-196593328D01*
X183743741Y-196593328D02*
X183600884Y-196521900D01*
X183600884Y-196521900D02*
X183529455Y-196450471D01*
X183529455Y-196450471D02*
X183458027Y-196307614D01*
X183458027Y-196307614D02*
X183458027Y-195879042D01*
X183458027Y-195879042D02*
X183529455Y-195736185D01*
X183529455Y-195736185D02*
X183600884Y-195664757D01*
X183600884Y-195664757D02*
X183743741Y-195593328D01*
X183743741Y-195593328D02*
X184029455Y-195593328D01*
X184029455Y-195593328D02*
X184172313Y-195664757D01*
X186029455Y-195807614D02*
X186529455Y-195807614D01*
X186743741Y-196593328D02*
X186029455Y-196593328D01*
X186029455Y-196593328D02*
X186029455Y-195093328D01*
X186029455Y-195093328D02*
X186743741Y-195093328D01*
X187386598Y-196450471D02*
X187458027Y-196521900D01*
X187458027Y-196521900D02*
X187386598Y-196593328D01*
X187386598Y-196593328D02*
X187315170Y-196521900D01*
X187315170Y-196521900D02*
X187386598Y-196450471D01*
X187386598Y-196450471D02*
X187386598Y-196593328D01*
X188100884Y-196593328D02*
X188100884Y-195093328D01*
X188100884Y-195093328D02*
X188458027Y-195093328D01*
X188458027Y-195093328D02*
X188672313Y-195164757D01*
X188672313Y-195164757D02*
X188815170Y-195307614D01*
X188815170Y-195307614D02*
X188886599Y-195450471D01*
X188886599Y-195450471D02*
X188958027Y-195736185D01*
X188958027Y-195736185D02*
X188958027Y-195950471D01*
X188958027Y-195950471D02*
X188886599Y-196236185D01*
X188886599Y-196236185D02*
X188815170Y-196379042D01*
X188815170Y-196379042D02*
X188672313Y-196521900D01*
X188672313Y-196521900D02*
X188458027Y-196593328D01*
X188458027Y-196593328D02*
X188100884Y-196593328D01*
X189600884Y-196450471D02*
X189672313Y-196521900D01*
X189672313Y-196521900D02*
X189600884Y-196593328D01*
X189600884Y-196593328D02*
X189529456Y-196521900D01*
X189529456Y-196521900D02*
X189600884Y-196450471D01*
X189600884Y-196450471D02*
X189600884Y-196593328D01*
X190243742Y-196164757D02*
X190958028Y-196164757D01*
X190100885Y-196593328D02*
X190600885Y-195093328D01*
X190600885Y-195093328D02*
X191100885Y-196593328D01*
X191600884Y-196450471D02*
X191672313Y-196521900D01*
X191672313Y-196521900D02*
X191600884Y-196593328D01*
X191600884Y-196593328D02*
X191529456Y-196521900D01*
X191529456Y-196521900D02*
X191600884Y-196450471D01*
X191600884Y-196450471D02*
X191600884Y-196593328D01*
X194600884Y-196593328D02*
X194600884Y-195093328D01*
X194743742Y-196021900D02*
X195172313Y-196593328D01*
X195172313Y-195593328D02*
X194600884Y-196164757D01*
X195815170Y-196593328D02*
X195815170Y-195593328D01*
X195815170Y-195093328D02*
X195743742Y-195164757D01*
X195743742Y-195164757D02*
X195815170Y-195236185D01*
X195815170Y-195236185D02*
X195886599Y-195164757D01*
X195886599Y-195164757D02*
X195815170Y-195093328D01*
X195815170Y-195093328D02*
X195815170Y-195236185D01*
X197172314Y-196521900D02*
X197029456Y-196593328D01*
X197029456Y-196593328D02*
X196743742Y-196593328D01*
X196743742Y-196593328D02*
X196600885Y-196521900D01*
X196600885Y-196521900D02*
X196529456Y-196450471D01*
X196529456Y-196450471D02*
X196458028Y-196307614D01*
X196458028Y-196307614D02*
X196458028Y-195879042D01*
X196458028Y-195879042D02*
X196529456Y-195736185D01*
X196529456Y-195736185D02*
X196600885Y-195664757D01*
X196600885Y-195664757D02*
X196743742Y-195593328D01*
X196743742Y-195593328D02*
X197029456Y-195593328D01*
X197029456Y-195593328D02*
X197172314Y-195664757D01*
X198458028Y-196593328D02*
X198458028Y-195807614D01*
X198458028Y-195807614D02*
X198386599Y-195664757D01*
X198386599Y-195664757D02*
X198243742Y-195593328D01*
X198243742Y-195593328D02*
X197958028Y-195593328D01*
X197958028Y-195593328D02*
X197815170Y-195664757D01*
X198458028Y-196521900D02*
X198315170Y-196593328D01*
X198315170Y-196593328D02*
X197958028Y-196593328D01*
X197958028Y-196593328D02*
X197815170Y-196521900D01*
X197815170Y-196521900D02*
X197743742Y-196379042D01*
X197743742Y-196379042D02*
X197743742Y-196236185D01*
X197743742Y-196236185D02*
X197815170Y-196093328D01*
X197815170Y-196093328D02*
X197958028Y-196021900D01*
X197958028Y-196021900D02*
X198315170Y-196021900D01*
X198315170Y-196021900D02*
X198458028Y-195950471D01*
X199815171Y-196593328D02*
X199815171Y-195093328D01*
X199815171Y-196521900D02*
X199672313Y-196593328D01*
X199672313Y-196593328D02*
X199386599Y-196593328D01*
X199386599Y-196593328D02*
X199243742Y-196521900D01*
X199243742Y-196521900D02*
X199172313Y-196450471D01*
X199172313Y-196450471D02*
X199100885Y-196307614D01*
X199100885Y-196307614D02*
X199100885Y-195879042D01*
X199100885Y-195879042D02*
X199172313Y-195736185D01*
X199172313Y-195736185D02*
X199243742Y-195664757D01*
X199243742Y-195664757D02*
X199386599Y-195593328D01*
X199386599Y-195593328D02*
X199672313Y-195593328D01*
X199672313Y-195593328D02*
X199815171Y-195664757D01*
X201529456Y-195093328D02*
X202529456Y-195093328D01*
X202529456Y-195093328D02*
X201886599Y-196593328D01*
X203100884Y-196450471D02*
X203172313Y-196521900D01*
X203172313Y-196521900D02*
X203100884Y-196593328D01*
X203100884Y-196593328D02*
X203029456Y-196521900D01*
X203029456Y-196521900D02*
X203100884Y-196450471D01*
X203100884Y-196450471D02*
X203100884Y-196593328D01*
X204100885Y-195093328D02*
X204243742Y-195093328D01*
X204243742Y-195093328D02*
X204386599Y-195164757D01*
X204386599Y-195164757D02*
X204458028Y-195236185D01*
X204458028Y-195236185D02*
X204529456Y-195379042D01*
X204529456Y-195379042D02*
X204600885Y-195664757D01*
X204600885Y-195664757D02*
X204600885Y-196021900D01*
X204600885Y-196021900D02*
X204529456Y-196307614D01*
X204529456Y-196307614D02*
X204458028Y-196450471D01*
X204458028Y-196450471D02*
X204386599Y-196521900D01*
X204386599Y-196521900D02*
X204243742Y-196593328D01*
X204243742Y-196593328D02*
X204100885Y-196593328D01*
X204100885Y-196593328D02*
X203958028Y-196521900D01*
X203958028Y-196521900D02*
X203886599Y-196450471D01*
X203886599Y-196450471D02*
X203815170Y-196307614D01*
X203815170Y-196307614D02*
X203743742Y-196021900D01*
X203743742Y-196021900D02*
X203743742Y-195664757D01*
X203743742Y-195664757D02*
X203815170Y-195379042D01*
X203815170Y-195379042D02*
X203886599Y-195236185D01*
X203886599Y-195236185D02*
X203958028Y-195164757D01*
X203958028Y-195164757D02*
X204100885Y-195093328D01*
X205243741Y-196450471D02*
X205315170Y-196521900D01*
X205315170Y-196521900D02*
X205243741Y-196593328D01*
X205243741Y-196593328D02*
X205172313Y-196521900D01*
X205172313Y-196521900D02*
X205243741Y-196450471D01*
X205243741Y-196450471D02*
X205243741Y-196593328D01*
X206600885Y-195093328D02*
X206315170Y-195093328D01*
X206315170Y-195093328D02*
X206172313Y-195164757D01*
X206172313Y-195164757D02*
X206100885Y-195236185D01*
X206100885Y-195236185D02*
X205958027Y-195450471D01*
X205958027Y-195450471D02*
X205886599Y-195736185D01*
X205886599Y-195736185D02*
X205886599Y-196307614D01*
X205886599Y-196307614D02*
X205958027Y-196450471D01*
X205958027Y-196450471D02*
X206029456Y-196521900D01*
X206029456Y-196521900D02*
X206172313Y-196593328D01*
X206172313Y-196593328D02*
X206458027Y-196593328D01*
X206458027Y-196593328D02*
X206600885Y-196521900D01*
X206600885Y-196521900D02*
X206672313Y-196450471D01*
X206672313Y-196450471D02*
X206743742Y-196307614D01*
X206743742Y-196307614D02*
X206743742Y-195950471D01*
X206743742Y-195950471D02*
X206672313Y-195807614D01*
X206672313Y-195807614D02*
X206600885Y-195736185D01*
X206600885Y-195736185D02*
X206458027Y-195664757D01*
X206458027Y-195664757D02*
X206172313Y-195664757D01*
X206172313Y-195664757D02*
X206029456Y-195736185D01*
X206029456Y-195736185D02*
X205958027Y-195807614D01*
X205958027Y-195807614D02*
X205886599Y-195950471D01*
D10*
D11*
X177002200Y-191507200D02*
X285002200Y-191507200D01*
D10*
D12*
X264413853Y-193785528D02*
X263913853Y-193071242D01*
X263556710Y-193785528D02*
X263556710Y-192285528D01*
X263556710Y-192285528D02*
X264128139Y-192285528D01*
X264128139Y-192285528D02*
X264270996Y-192356957D01*
X264270996Y-192356957D02*
X264342425Y-192428385D01*
X264342425Y-192428385D02*
X264413853Y-192571242D01*
X264413853Y-192571242D02*
X264413853Y-192785528D01*
X264413853Y-192785528D02*
X264342425Y-192928385D01*
X264342425Y-192928385D02*
X264270996Y-192999814D01*
X264270996Y-192999814D02*
X264128139Y-193071242D01*
X264128139Y-193071242D02*
X263556710Y-193071242D01*
X265628139Y-193714100D02*
X265485282Y-193785528D01*
X265485282Y-193785528D02*
X265199568Y-193785528D01*
X265199568Y-193785528D02*
X265056710Y-193714100D01*
X265056710Y-193714100D02*
X264985282Y-193571242D01*
X264985282Y-193571242D02*
X264985282Y-192999814D01*
X264985282Y-192999814D02*
X265056710Y-192856957D01*
X265056710Y-192856957D02*
X265199568Y-192785528D01*
X265199568Y-192785528D02*
X265485282Y-192785528D01*
X265485282Y-192785528D02*
X265628139Y-192856957D01*
X265628139Y-192856957D02*
X265699568Y-192999814D01*
X265699568Y-192999814D02*
X265699568Y-193142671D01*
X265699568Y-193142671D02*
X264985282Y-193285528D01*
X266199567Y-192785528D02*
X266556710Y-193785528D01*
X266556710Y-193785528D02*
X266913853Y-192785528D01*
X267485281Y-193642671D02*
X267556710Y-193714100D01*
X267556710Y-193714100D02*
X267485281Y-193785528D01*
X267485281Y-193785528D02*
X267413853Y-193714100D01*
X267413853Y-193714100D02*
X267485281Y-193642671D01*
X267485281Y-193642671D02*
X267485281Y-193785528D01*
X267485281Y-192856957D02*
X267556710Y-192928385D01*
X267556710Y-192928385D02*
X267485281Y-192999814D01*
X267485281Y-192999814D02*
X267413853Y-192928385D01*
X267413853Y-192928385D02*
X267485281Y-192856957D01*
X267485281Y-192856957D02*
X267485281Y-192999814D01*
X270056710Y-192285528D02*
X269342424Y-192285528D01*
X269342424Y-192285528D02*
X269270996Y-192999814D01*
X269270996Y-192999814D02*
X269342424Y-192928385D01*
X269342424Y-192928385D02*
X269485282Y-192856957D01*
X269485282Y-192856957D02*
X269842424Y-192856957D01*
X269842424Y-192856957D02*
X269985282Y-192928385D01*
X269985282Y-192928385D02*
X270056710Y-192999814D01*
X270056710Y-192999814D02*
X270128139Y-193142671D01*
X270128139Y-193142671D02*
X270128139Y-193499814D01*
X270128139Y-193499814D02*
X270056710Y-193642671D01*
X270056710Y-193642671D02*
X269985282Y-193714100D01*
X269985282Y-193714100D02*
X269842424Y-193785528D01*
X269842424Y-193785528D02*
X269485282Y-193785528D01*
X269485282Y-193785528D02*
X269342424Y-193714100D01*
X269342424Y-193714100D02*
X269270996Y-193642671D01*
X270770995Y-193642671D02*
X270842424Y-193714100D01*
X270842424Y-193714100D02*
X270770995Y-193785528D01*
X270770995Y-193785528D02*
X270699567Y-193714100D01*
X270699567Y-193714100D02*
X270770995Y-193642671D01*
X270770995Y-193642671D02*
X270770995Y-193785528D01*
X271342424Y-192285528D02*
X272270996Y-192285528D01*
X272270996Y-192285528D02*
X271770996Y-192856957D01*
X271770996Y-192856957D02*
X271985281Y-192856957D01*
X271985281Y-192856957D02*
X272128139Y-192928385D01*
X272128139Y-192928385D02*
X272199567Y-192999814D01*
X272199567Y-192999814D02*
X272270996Y-193142671D01*
X272270996Y-193142671D02*
X272270996Y-193499814D01*
X272270996Y-193499814D02*
X272199567Y-193642671D01*
X272199567Y-193642671D02*
X272128139Y-193714100D01*
X272128139Y-193714100D02*
X271985281Y-193785528D01*
X271985281Y-193785528D02*
X271556710Y-193785528D01*
X271556710Y-193785528D02*
X271413853Y-193714100D01*
X271413853Y-193714100D02*
X271342424Y-193642671D01*
D10*
D11*
X178386598Y-193721900D02*
X178600884Y-193793328D01*
X178600884Y-193793328D02*
X178958026Y-193793328D01*
X178958026Y-193793328D02*
X179100884Y-193721900D01*
X179100884Y-193721900D02*
X179172312Y-193650471D01*
X179172312Y-193650471D02*
X179243741Y-193507614D01*
X179243741Y-193507614D02*
X179243741Y-193364757D01*
X179243741Y-193364757D02*
X179172312Y-193221900D01*
X179172312Y-193221900D02*
X179100884Y-193150471D01*
X179100884Y-193150471D02*
X178958026Y-193079042D01*
X178958026Y-193079042D02*
X178672312Y-193007614D01*
X178672312Y-193007614D02*
X178529455Y-192936185D01*
X178529455Y-192936185D02*
X178458026Y-192864757D01*
X178458026Y-192864757D02*
X178386598Y-192721900D01*
X178386598Y-192721900D02*
X178386598Y-192579042D01*
X178386598Y-192579042D02*
X178458026Y-192436185D01*
X178458026Y-192436185D02*
X178529455Y-192364757D01*
X178529455Y-192364757D02*
X178672312Y-192293328D01*
X178672312Y-192293328D02*
X179029455Y-192293328D01*
X179029455Y-192293328D02*
X179243741Y-192364757D01*
X179886597Y-193793328D02*
X179886597Y-192793328D01*
X179886597Y-192293328D02*
X179815169Y-192364757D01*
X179815169Y-192364757D02*
X179886597Y-192436185D01*
X179886597Y-192436185D02*
X179958026Y-192364757D01*
X179958026Y-192364757D02*
X179886597Y-192293328D01*
X179886597Y-192293328D02*
X179886597Y-192436185D01*
X180458026Y-192793328D02*
X181243741Y-192793328D01*
X181243741Y-192793328D02*
X180458026Y-193793328D01*
X180458026Y-193793328D02*
X181243741Y-193793328D01*
X182386598Y-193721900D02*
X182243741Y-193793328D01*
X182243741Y-193793328D02*
X181958027Y-193793328D01*
X181958027Y-193793328D02*
X181815169Y-193721900D01*
X181815169Y-193721900D02*
X181743741Y-193579042D01*
X181743741Y-193579042D02*
X181743741Y-193007614D01*
X181743741Y-193007614D02*
X181815169Y-192864757D01*
X181815169Y-192864757D02*
X181958027Y-192793328D01*
X181958027Y-192793328D02*
X182243741Y-192793328D01*
X182243741Y-192793328D02*
X182386598Y-192864757D01*
X182386598Y-192864757D02*
X182458027Y-193007614D01*
X182458027Y-193007614D02*
X182458027Y-193150471D01*
X182458027Y-193150471D02*
X181743741Y-193293328D01*
X183100883Y-193650471D02*
X183172312Y-193721900D01*
X183172312Y-193721900D02*
X183100883Y-193793328D01*
X183100883Y-193793328D02*
X183029455Y-193721900D01*
X183029455Y-193721900D02*
X183100883Y-193650471D01*
X183100883Y-193650471D02*
X183100883Y-193793328D01*
X183100883Y-192864757D02*
X183172312Y-192936185D01*
X183172312Y-192936185D02*
X183100883Y-193007614D01*
X183100883Y-193007614D02*
X183029455Y-192936185D01*
X183029455Y-192936185D02*
X183100883Y-192864757D01*
X183100883Y-192864757D02*
X183100883Y-193007614D01*
X184886598Y-193364757D02*
X185600884Y-193364757D01*
X184743741Y-193793328D02*
X185243741Y-192293328D01*
X185243741Y-192293328D02*
X185743741Y-193793328D01*
X186886598Y-192793328D02*
X186886598Y-193793328D01*
X186529455Y-192221900D02*
X186172312Y-193293328D01*
X186172312Y-193293328D02*
X187100883Y-193293328D01*
D10*
D11*
X263458026Y-196593328D02*
X263458026Y-195093328D01*
X264815170Y-196593328D02*
X264815170Y-195093328D01*
X264815170Y-196521900D02*
X264672312Y-196593328D01*
X264672312Y-196593328D02*
X264386598Y-196593328D01*
X264386598Y-196593328D02*
X264243741Y-196521900D01*
X264243741Y-196521900D02*
X264172312Y-196450471D01*
X264172312Y-196450471D02*
X264100884Y-196307614D01*
X264100884Y-196307614D02*
X264100884Y-195879042D01*
X264100884Y-195879042D02*
X264172312Y-195736185D01*
X264172312Y-195736185D02*
X264243741Y-195664757D01*
X264243741Y-195664757D02*
X264386598Y-195593328D01*
X264386598Y-195593328D02*
X264672312Y-195593328D01*
X264672312Y-195593328D02*
X264815170Y-195664757D01*
X265529455Y-196450471D02*
X265600884Y-196521900D01*
X265600884Y-196521900D02*
X265529455Y-196593328D01*
X265529455Y-196593328D02*
X265458027Y-196521900D01*
X265458027Y-196521900D02*
X265529455Y-196450471D01*
X265529455Y-196450471D02*
X265529455Y-196593328D01*
X265529455Y-195664757D02*
X265600884Y-195736185D01*
X265600884Y-195736185D02*
X265529455Y-195807614D01*
X265529455Y-195807614D02*
X265458027Y-195736185D01*
X265458027Y-195736185D02*
X265529455Y-195664757D01*
X265529455Y-195664757D02*
X265529455Y-195807614D01*
X268172313Y-196593328D02*
X267315170Y-196593328D01*
X267743741Y-196593328D02*
X267743741Y-195093328D01*
X267743741Y-195093328D02*
X267600884Y-195307614D01*
X267600884Y-195307614D02*
X267458027Y-195450471D01*
X267458027Y-195450471D02*
X267315170Y-195521900D01*
X269886598Y-195021900D02*
X268600884Y-196950471D01*
X271172313Y-196593328D02*
X270315170Y-196593328D01*
X270743741Y-196593328D02*
X270743741Y-195093328D01*
X270743741Y-195093328D02*
X270600884Y-195307614D01*
X270600884Y-195307614D02*
X270458027Y-195450471D01*
X270458027Y-195450471D02*
X270315170Y-195521900D01*
D10*
D11*
X177002200Y-187507200D02*
X285002200Y-187507200D01*
D10*
D13*
X178693928Y-188211638D02*
X179836785Y-188211638D01*
X179015357Y-190211638D02*
X179265357Y-188211638D01*
X180253452Y-190211638D02*
X180420119Y-188878304D01*
X180503452Y-188211638D02*
X180396309Y-188306876D01*
X180396309Y-188306876D02*
X180479643Y-188402114D01*
X180479643Y-188402114D02*
X180586786Y-188306876D01*
X180586786Y-188306876D02*
X180503452Y-188211638D01*
X180503452Y-188211638D02*
X180479643Y-188402114D01*
X181086786Y-188878304D02*
X181848690Y-188878304D01*
X181455833Y-188211638D02*
X181241548Y-189925923D01*
X181241548Y-189925923D02*
X181312976Y-190116400D01*
X181312976Y-190116400D02*
X181491548Y-190211638D01*
X181491548Y-190211638D02*
X181682024Y-190211638D01*
X182634405Y-190211638D02*
X182455833Y-190116400D01*
X182455833Y-190116400D02*
X182384405Y-189925923D01*
X182384405Y-189925923D02*
X182598690Y-188211638D01*
X184170119Y-190116400D02*
X183967738Y-190211638D01*
X183967738Y-190211638D02*
X183586785Y-190211638D01*
X183586785Y-190211638D02*
X183408214Y-190116400D01*
X183408214Y-190116400D02*
X183336785Y-189925923D01*
X183336785Y-189925923D02*
X183432024Y-189164019D01*
X183432024Y-189164019D02*
X183551071Y-188973542D01*
X183551071Y-188973542D02*
X183753452Y-188878304D01*
X183753452Y-188878304D02*
X184134404Y-188878304D01*
X184134404Y-188878304D02*
X184312976Y-188973542D01*
X184312976Y-188973542D02*
X184384404Y-189164019D01*
X184384404Y-189164019D02*
X184360595Y-189354495D01*
X184360595Y-189354495D02*
X183384404Y-189544971D01*
X185134405Y-190021161D02*
X185217738Y-190116400D01*
X185217738Y-190116400D02*
X185110595Y-190211638D01*
X185110595Y-190211638D02*
X185027262Y-190116400D01*
X185027262Y-190116400D02*
X185134405Y-190021161D01*
X185134405Y-190021161D02*
X185110595Y-190211638D01*
X185265357Y-188973542D02*
X185348690Y-189068780D01*
X185348690Y-189068780D02*
X185241548Y-189164019D01*
X185241548Y-189164019D02*
X185158214Y-189068780D01*
X185158214Y-189068780D02*
X185265357Y-188973542D01*
X185265357Y-188973542D02*
X185241548Y-189164019D01*
D10*
D11*
X178958026Y-185607614D02*
X178458026Y-185607614D01*
X178458026Y-186393328D02*
X178458026Y-184893328D01*
X178458026Y-184893328D02*
X179172312Y-184893328D01*
X179743740Y-186393328D02*
X179743740Y-185393328D01*
X179743740Y-184893328D02*
X179672312Y-184964757D01*
X179672312Y-184964757D02*
X179743740Y-185036185D01*
X179743740Y-185036185D02*
X179815169Y-184964757D01*
X179815169Y-184964757D02*
X179743740Y-184893328D01*
X179743740Y-184893328D02*
X179743740Y-185036185D01*
X180672312Y-186393328D02*
X180529455Y-186321900D01*
X180529455Y-186321900D02*
X180458026Y-186179042D01*
X180458026Y-186179042D02*
X180458026Y-184893328D01*
X181815169Y-186321900D02*
X181672312Y-186393328D01*
X181672312Y-186393328D02*
X181386598Y-186393328D01*
X181386598Y-186393328D02*
X181243740Y-186321900D01*
X181243740Y-186321900D02*
X181172312Y-186179042D01*
X181172312Y-186179042D02*
X181172312Y-185607614D01*
X181172312Y-185607614D02*
X181243740Y-185464757D01*
X181243740Y-185464757D02*
X181386598Y-185393328D01*
X181386598Y-185393328D02*
X181672312Y-185393328D01*
X181672312Y-185393328D02*
X181815169Y-185464757D01*
X181815169Y-185464757D02*
X181886598Y-185607614D01*
X181886598Y-185607614D02*
X181886598Y-185750471D01*
X181886598Y-185750471D02*
X181172312Y-185893328D01*
X182529454Y-186250471D02*
X182600883Y-186321900D01*
X182600883Y-186321900D02*
X182529454Y-186393328D01*
X182529454Y-186393328D02*
X182458026Y-186321900D01*
X182458026Y-186321900D02*
X182529454Y-186250471D01*
X182529454Y-186250471D02*
X182529454Y-186393328D01*
X182529454Y-185464757D02*
X182600883Y-185536185D01*
X182600883Y-185536185D02*
X182529454Y-185607614D01*
X182529454Y-185607614D02*
X182458026Y-185536185D01*
X182458026Y-185536185D02*
X182529454Y-185464757D01*
X182529454Y-185464757D02*
X182529454Y-185607614D01*
X184243740Y-185393328D02*
X184529455Y-186393328D01*
X184529455Y-186393328D02*
X184815169Y-185679042D01*
X184815169Y-185679042D02*
X185100883Y-186393328D01*
X185100883Y-186393328D02*
X185386597Y-185393328D01*
X185958026Y-186393328D02*
X185958026Y-185393328D01*
X185958026Y-184893328D02*
X185886598Y-184964757D01*
X185886598Y-184964757D02*
X185958026Y-185036185D01*
X185958026Y-185036185D02*
X186029455Y-184964757D01*
X186029455Y-184964757D02*
X185958026Y-184893328D01*
X185958026Y-184893328D02*
X185958026Y-185036185D01*
X186672312Y-186393328D02*
X186672312Y-185393328D01*
X186672312Y-185679042D02*
X186743741Y-185536185D01*
X186743741Y-185536185D02*
X186815170Y-185464757D01*
X186815170Y-185464757D02*
X186958027Y-185393328D01*
X186958027Y-185393328D02*
X187100884Y-185393328D01*
X188172312Y-186321900D02*
X188029455Y-186393328D01*
X188029455Y-186393328D02*
X187743741Y-186393328D01*
X187743741Y-186393328D02*
X187600883Y-186321900D01*
X187600883Y-186321900D02*
X187529455Y-186179042D01*
X187529455Y-186179042D02*
X187529455Y-185607614D01*
X187529455Y-185607614D02*
X187600883Y-185464757D01*
X187600883Y-185464757D02*
X187743741Y-185393328D01*
X187743741Y-185393328D02*
X188029455Y-185393328D01*
X188029455Y-185393328D02*
X188172312Y-185464757D01*
X188172312Y-185464757D02*
X188243741Y-185607614D01*
X188243741Y-185607614D02*
X188243741Y-185750471D01*
X188243741Y-185750471D02*
X187529455Y-185893328D01*
X189100883Y-186393328D02*
X188958026Y-186321900D01*
X188958026Y-186321900D02*
X188886597Y-186179042D01*
X188886597Y-186179042D02*
X188886597Y-184893328D01*
X190243740Y-186321900D02*
X190100883Y-186393328D01*
X190100883Y-186393328D02*
X189815169Y-186393328D01*
X189815169Y-186393328D02*
X189672311Y-186321900D01*
X189672311Y-186321900D02*
X189600883Y-186179042D01*
X189600883Y-186179042D02*
X189600883Y-185607614D01*
X189600883Y-185607614D02*
X189672311Y-185464757D01*
X189672311Y-185464757D02*
X189815169Y-185393328D01*
X189815169Y-185393328D02*
X190100883Y-185393328D01*
X190100883Y-185393328D02*
X190243740Y-185464757D01*
X190243740Y-185464757D02*
X190315169Y-185607614D01*
X190315169Y-185607614D02*
X190315169Y-185750471D01*
X190315169Y-185750471D02*
X189600883Y-185893328D01*
X190886597Y-186321900D02*
X191029454Y-186393328D01*
X191029454Y-186393328D02*
X191315168Y-186393328D01*
X191315168Y-186393328D02*
X191458025Y-186321900D01*
X191458025Y-186321900D02*
X191529454Y-186179042D01*
X191529454Y-186179042D02*
X191529454Y-186107614D01*
X191529454Y-186107614D02*
X191458025Y-185964757D01*
X191458025Y-185964757D02*
X191315168Y-185893328D01*
X191315168Y-185893328D02*
X191100883Y-185893328D01*
X191100883Y-185893328D02*
X190958025Y-185821900D01*
X190958025Y-185821900D02*
X190886597Y-185679042D01*
X190886597Y-185679042D02*
X190886597Y-185607614D01*
X190886597Y-185607614D02*
X190958025Y-185464757D01*
X190958025Y-185464757D02*
X191100883Y-185393328D01*
X191100883Y-185393328D02*
X191315168Y-185393328D01*
X191315168Y-185393328D02*
X191458025Y-185464757D01*
X192100883Y-186321900D02*
X192243740Y-186393328D01*
X192243740Y-186393328D02*
X192529454Y-186393328D01*
X192529454Y-186393328D02*
X192672311Y-186321900D01*
X192672311Y-186321900D02*
X192743740Y-186179042D01*
X192743740Y-186179042D02*
X192743740Y-186107614D01*
X192743740Y-186107614D02*
X192672311Y-185964757D01*
X192672311Y-185964757D02*
X192529454Y-185893328D01*
X192529454Y-185893328D02*
X192315169Y-185893328D01*
X192315169Y-185893328D02*
X192172311Y-185821900D01*
X192172311Y-185821900D02*
X192100883Y-185679042D01*
X192100883Y-185679042D02*
X192100883Y-185607614D01*
X192100883Y-185607614D02*
X192172311Y-185464757D01*
X192172311Y-185464757D02*
X192315169Y-185393328D01*
X192315169Y-185393328D02*
X192529454Y-185393328D01*
X192529454Y-185393328D02*
X192672311Y-185464757D01*
X193029455Y-186536185D02*
X194172312Y-186536185D01*
X194529454Y-186393328D02*
X194529454Y-185393328D01*
X194529454Y-185679042D02*
X194600883Y-185536185D01*
X194600883Y-185536185D02*
X194672312Y-185464757D01*
X194672312Y-185464757D02*
X194815169Y-185393328D01*
X194815169Y-185393328D02*
X194958026Y-185393328D01*
X196100883Y-186393328D02*
X196100883Y-185607614D01*
X196100883Y-185607614D02*
X196029454Y-185464757D01*
X196029454Y-185464757D02*
X195886597Y-185393328D01*
X195886597Y-185393328D02*
X195600883Y-185393328D01*
X195600883Y-185393328D02*
X195458025Y-185464757D01*
X196100883Y-186321900D02*
X195958025Y-186393328D01*
X195958025Y-186393328D02*
X195600883Y-186393328D01*
X195600883Y-186393328D02*
X195458025Y-186321900D01*
X195458025Y-186321900D02*
X195386597Y-186179042D01*
X195386597Y-186179042D02*
X195386597Y-186036185D01*
X195386597Y-186036185D02*
X195458025Y-185893328D01*
X195458025Y-185893328D02*
X195600883Y-185821900D01*
X195600883Y-185821900D02*
X195958025Y-185821900D01*
X195958025Y-185821900D02*
X196100883Y-185750471D01*
X196815168Y-186393328D02*
X196815168Y-185393328D01*
X196815168Y-184893328D02*
X196743740Y-184964757D01*
X196743740Y-184964757D02*
X196815168Y-185036185D01*
X196815168Y-185036185D02*
X196886597Y-184964757D01*
X196886597Y-184964757D02*
X196815168Y-184893328D01*
X196815168Y-184893328D02*
X196815168Y-185036185D01*
X197529454Y-185393328D02*
X197529454Y-186393328D01*
X197529454Y-185536185D02*
X197600883Y-185464757D01*
X197600883Y-185464757D02*
X197743740Y-185393328D01*
X197743740Y-185393328D02*
X197958026Y-185393328D01*
X197958026Y-185393328D02*
X198100883Y-185464757D01*
X198100883Y-185464757D02*
X198172312Y-185607614D01*
X198172312Y-185607614D02*
X198172312Y-186393328D01*
X198886597Y-186393328D02*
X198886597Y-185393328D01*
X198886597Y-185536185D02*
X198958026Y-185464757D01*
X198958026Y-185464757D02*
X199100883Y-185393328D01*
X199100883Y-185393328D02*
X199315169Y-185393328D01*
X199315169Y-185393328D02*
X199458026Y-185464757D01*
X199458026Y-185464757D02*
X199529455Y-185607614D01*
X199529455Y-185607614D02*
X199529455Y-186393328D01*
X199529455Y-185607614D02*
X199600883Y-185464757D01*
X199600883Y-185464757D02*
X199743740Y-185393328D01*
X199743740Y-185393328D02*
X199958026Y-185393328D01*
X199958026Y-185393328D02*
X200100883Y-185464757D01*
X200100883Y-185464757D02*
X200172312Y-185607614D01*
X200172312Y-185607614D02*
X200172312Y-186393328D01*
X201458026Y-186321900D02*
X201315169Y-186393328D01*
X201315169Y-186393328D02*
X201029455Y-186393328D01*
X201029455Y-186393328D02*
X200886597Y-186321900D01*
X200886597Y-186321900D02*
X200815169Y-186179042D01*
X200815169Y-186179042D02*
X200815169Y-185607614D01*
X200815169Y-185607614D02*
X200886597Y-185464757D01*
X200886597Y-185464757D02*
X201029455Y-185393328D01*
X201029455Y-185393328D02*
X201315169Y-185393328D01*
X201315169Y-185393328D02*
X201458026Y-185464757D01*
X201458026Y-185464757D02*
X201529455Y-185607614D01*
X201529455Y-185607614D02*
X201529455Y-185750471D01*
X201529455Y-185750471D02*
X200815169Y-185893328D01*
X201958026Y-185393328D02*
X202529454Y-185393328D01*
X202172311Y-184893328D02*
X202172311Y-186179042D01*
X202172311Y-186179042D02*
X202243740Y-186321900D01*
X202243740Y-186321900D02*
X202386597Y-186393328D01*
X202386597Y-186393328D02*
X202529454Y-186393328D01*
X203600883Y-186321900D02*
X203458026Y-186393328D01*
X203458026Y-186393328D02*
X203172312Y-186393328D01*
X203172312Y-186393328D02*
X203029454Y-186321900D01*
X203029454Y-186321900D02*
X202958026Y-186179042D01*
X202958026Y-186179042D02*
X202958026Y-185607614D01*
X202958026Y-185607614D02*
X203029454Y-185464757D01*
X203029454Y-185464757D02*
X203172312Y-185393328D01*
X203172312Y-185393328D02*
X203458026Y-185393328D01*
X203458026Y-185393328D02*
X203600883Y-185464757D01*
X203600883Y-185464757D02*
X203672312Y-185607614D01*
X203672312Y-185607614D02*
X203672312Y-185750471D01*
X203672312Y-185750471D02*
X202958026Y-185893328D01*
X204315168Y-186393328D02*
X204315168Y-185393328D01*
X204315168Y-185679042D02*
X204386597Y-185536185D01*
X204386597Y-185536185D02*
X204458026Y-185464757D01*
X204458026Y-185464757D02*
X204600883Y-185393328D01*
X204600883Y-185393328D02*
X204743740Y-185393328D01*
X204886597Y-186536185D02*
X206029454Y-186536185D01*
X207029454Y-185393328D02*
X207029454Y-186393328D01*
X206672311Y-184821900D02*
X206315168Y-185893328D01*
X206315168Y-185893328D02*
X207243739Y-185893328D01*
X207743739Y-185036185D02*
X207815167Y-184964757D01*
X207815167Y-184964757D02*
X207958025Y-184893328D01*
X207958025Y-184893328D02*
X208315167Y-184893328D01*
X208315167Y-184893328D02*
X208458025Y-184964757D01*
X208458025Y-184964757D02*
X208529453Y-185036185D01*
X208529453Y-185036185D02*
X208600882Y-185179042D01*
X208600882Y-185179042D02*
X208600882Y-185321900D01*
X208600882Y-185321900D02*
X208529453Y-185536185D01*
X208529453Y-185536185D02*
X207672310Y-186393328D01*
X207672310Y-186393328D02*
X208600882Y-186393328D01*
X209100881Y-186393328D02*
X209886596Y-185393328D01*
X209100881Y-185393328D02*
X209886596Y-186393328D01*
X211172310Y-184893328D02*
X210458024Y-184893328D01*
X210458024Y-184893328D02*
X210386596Y-185607614D01*
X210386596Y-185607614D02*
X210458024Y-185536185D01*
X210458024Y-185536185D02*
X210600882Y-185464757D01*
X210600882Y-185464757D02*
X210958024Y-185464757D01*
X210958024Y-185464757D02*
X211100882Y-185536185D01*
X211100882Y-185536185D02*
X211172310Y-185607614D01*
X211172310Y-185607614D02*
X211243739Y-185750471D01*
X211243739Y-185750471D02*
X211243739Y-186107614D01*
X211243739Y-186107614D02*
X211172310Y-186250471D01*
X211172310Y-186250471D02*
X211100882Y-186321900D01*
X211100882Y-186321900D02*
X210958024Y-186393328D01*
X210958024Y-186393328D02*
X210600882Y-186393328D01*
X210600882Y-186393328D02*
X210458024Y-186321900D01*
X210458024Y-186321900D02*
X210386596Y-186250471D01*
X212529453Y-185393328D02*
X212529453Y-186393328D01*
X212172310Y-184821900D02*
X211815167Y-185893328D01*
X211815167Y-185893328D02*
X212743738Y-185893328D01*
X213172309Y-186393328D02*
X213958024Y-185393328D01*
X213172309Y-185393328D02*
X213958024Y-186393328D01*
X215315167Y-186393328D02*
X214458024Y-186393328D01*
X214886595Y-186393328D02*
X214886595Y-184893328D01*
X214886595Y-184893328D02*
X214743738Y-185107614D01*
X214743738Y-185107614D02*
X214600881Y-185250471D01*
X214600881Y-185250471D02*
X214458024Y-185321900D01*
X216029452Y-186321900D02*
X216029452Y-186393328D01*
X216029452Y-186393328D02*
X215958023Y-186536185D01*
X215958023Y-186536185D02*
X215886595Y-186607614D01*
X217315167Y-184893328D02*
X217029452Y-184893328D01*
X217029452Y-184893328D02*
X216886595Y-184964757D01*
X216886595Y-184964757D02*
X216815167Y-185036185D01*
X216815167Y-185036185D02*
X216672309Y-185250471D01*
X216672309Y-185250471D02*
X216600881Y-185536185D01*
X216600881Y-185536185D02*
X216600881Y-186107614D01*
X216600881Y-186107614D02*
X216672309Y-186250471D01*
X216672309Y-186250471D02*
X216743738Y-186321900D01*
X216743738Y-186321900D02*
X216886595Y-186393328D01*
X216886595Y-186393328D02*
X217172309Y-186393328D01*
X217172309Y-186393328D02*
X217315167Y-186321900D01*
X217315167Y-186321900D02*
X217386595Y-186250471D01*
X217386595Y-186250471D02*
X217458024Y-186107614D01*
X217458024Y-186107614D02*
X217458024Y-185750471D01*
X217458024Y-185750471D02*
X217386595Y-185607614D01*
X217386595Y-185607614D02*
X217315167Y-185536185D01*
X217315167Y-185536185D02*
X217172309Y-185464757D01*
X217172309Y-185464757D02*
X216886595Y-185464757D01*
X216886595Y-185464757D02*
X216743738Y-185536185D01*
X216743738Y-185536185D02*
X216672309Y-185607614D01*
X216672309Y-185607614D02*
X216600881Y-185750471D01*
X218100880Y-186393328D02*
X218100880Y-185393328D01*
X218100880Y-185536185D02*
X218172309Y-185464757D01*
X218172309Y-185464757D02*
X218315166Y-185393328D01*
X218315166Y-185393328D02*
X218529452Y-185393328D01*
X218529452Y-185393328D02*
X218672309Y-185464757D01*
X218672309Y-185464757D02*
X218743738Y-185607614D01*
X218743738Y-185607614D02*
X218743738Y-186393328D01*
X218743738Y-185607614D02*
X218815166Y-185464757D01*
X218815166Y-185464757D02*
X218958023Y-185393328D01*
X218958023Y-185393328D02*
X219172309Y-185393328D01*
X219172309Y-185393328D02*
X219315166Y-185464757D01*
X219315166Y-185464757D02*
X219386595Y-185607614D01*
X219386595Y-185607614D02*
X219386595Y-186393328D01*
X220100880Y-186393328D02*
X220100880Y-185393328D01*
X220100880Y-185536185D02*
X220172309Y-185464757D01*
X220172309Y-185464757D02*
X220315166Y-185393328D01*
X220315166Y-185393328D02*
X220529452Y-185393328D01*
X220529452Y-185393328D02*
X220672309Y-185464757D01*
X220672309Y-185464757D02*
X220743738Y-185607614D01*
X220743738Y-185607614D02*
X220743738Y-186393328D01*
X220743738Y-185607614D02*
X220815166Y-185464757D01*
X220815166Y-185464757D02*
X220958023Y-185393328D01*
X220958023Y-185393328D02*
X221172309Y-185393328D01*
X221172309Y-185393328D02*
X221315166Y-185464757D01*
X221315166Y-185464757D02*
X221386595Y-185607614D01*
X221386595Y-185607614D02*
X221386595Y-186393328D01*
X222100880Y-186250471D02*
X222172309Y-186321900D01*
X222172309Y-186321900D02*
X222100880Y-186393328D01*
X222100880Y-186393328D02*
X222029452Y-186321900D01*
X222029452Y-186321900D02*
X222100880Y-186250471D01*
X222100880Y-186250471D02*
X222100880Y-186393328D01*
X222815166Y-186393328D02*
X222815166Y-184893328D01*
X222958024Y-185821900D02*
X223386595Y-186393328D01*
X223386595Y-185393328D02*
X222815166Y-185964757D01*
X224029452Y-186393328D02*
X224029452Y-185393328D01*
X224029452Y-184893328D02*
X223958024Y-184964757D01*
X223958024Y-184964757D02*
X224029452Y-185036185D01*
X224029452Y-185036185D02*
X224100881Y-184964757D01*
X224100881Y-184964757D02*
X224029452Y-184893328D01*
X224029452Y-184893328D02*
X224029452Y-185036185D01*
X225386596Y-186321900D02*
X225243738Y-186393328D01*
X225243738Y-186393328D02*
X224958024Y-186393328D01*
X224958024Y-186393328D02*
X224815167Y-186321900D01*
X224815167Y-186321900D02*
X224743738Y-186250471D01*
X224743738Y-186250471D02*
X224672310Y-186107614D01*
X224672310Y-186107614D02*
X224672310Y-185679042D01*
X224672310Y-185679042D02*
X224743738Y-185536185D01*
X224743738Y-185536185D02*
X224815167Y-185464757D01*
X224815167Y-185464757D02*
X224958024Y-185393328D01*
X224958024Y-185393328D02*
X225243738Y-185393328D01*
X225243738Y-185393328D02*
X225386596Y-185464757D01*
X226672310Y-186393328D02*
X226672310Y-185607614D01*
X226672310Y-185607614D02*
X226600881Y-185464757D01*
X226600881Y-185464757D02*
X226458024Y-185393328D01*
X226458024Y-185393328D02*
X226172310Y-185393328D01*
X226172310Y-185393328D02*
X226029452Y-185464757D01*
X226672310Y-186321900D02*
X226529452Y-186393328D01*
X226529452Y-186393328D02*
X226172310Y-186393328D01*
X226172310Y-186393328D02*
X226029452Y-186321900D01*
X226029452Y-186321900D02*
X225958024Y-186179042D01*
X225958024Y-186179042D02*
X225958024Y-186036185D01*
X225958024Y-186036185D02*
X226029452Y-185893328D01*
X226029452Y-185893328D02*
X226172310Y-185821900D01*
X226172310Y-185821900D02*
X226529452Y-185821900D01*
X226529452Y-185821900D02*
X226672310Y-185750471D01*
X228029453Y-186393328D02*
X228029453Y-184893328D01*
X228029453Y-186321900D02*
X227886595Y-186393328D01*
X227886595Y-186393328D02*
X227600881Y-186393328D01*
X227600881Y-186393328D02*
X227458024Y-186321900D01*
X227458024Y-186321900D02*
X227386595Y-186250471D01*
X227386595Y-186250471D02*
X227315167Y-186107614D01*
X227315167Y-186107614D02*
X227315167Y-185679042D01*
X227315167Y-185679042D02*
X227386595Y-185536185D01*
X227386595Y-185536185D02*
X227458024Y-185464757D01*
X227458024Y-185464757D02*
X227600881Y-185393328D01*
X227600881Y-185393328D02*
X227886595Y-185393328D01*
X227886595Y-185393328D02*
X228029453Y-185464757D01*
X228386596Y-186536185D02*
X229529453Y-186536185D01*
X229886595Y-185393328D02*
X229886595Y-186893328D01*
X229886595Y-185464757D02*
X230029453Y-185393328D01*
X230029453Y-185393328D02*
X230315167Y-185393328D01*
X230315167Y-185393328D02*
X230458024Y-185464757D01*
X230458024Y-185464757D02*
X230529453Y-185536185D01*
X230529453Y-185536185D02*
X230600881Y-185679042D01*
X230600881Y-185679042D02*
X230600881Y-186107614D01*
X230600881Y-186107614D02*
X230529453Y-186250471D01*
X230529453Y-186250471D02*
X230458024Y-186321900D01*
X230458024Y-186321900D02*
X230315167Y-186393328D01*
X230315167Y-186393328D02*
X230029453Y-186393328D01*
X230029453Y-186393328D02*
X229886595Y-186321900D01*
X231886596Y-186321900D02*
X231743738Y-186393328D01*
X231743738Y-186393328D02*
X231458024Y-186393328D01*
X231458024Y-186393328D02*
X231315167Y-186321900D01*
X231315167Y-186321900D02*
X231243738Y-186250471D01*
X231243738Y-186250471D02*
X231172310Y-186107614D01*
X231172310Y-186107614D02*
X231172310Y-185679042D01*
X231172310Y-185679042D02*
X231243738Y-185536185D01*
X231243738Y-185536185D02*
X231315167Y-185464757D01*
X231315167Y-185464757D02*
X231458024Y-185393328D01*
X231458024Y-185393328D02*
X231743738Y-185393328D01*
X231743738Y-185393328D02*
X231886596Y-185464757D01*
X232529452Y-186393328D02*
X232529452Y-184893328D01*
X232529452Y-185464757D02*
X232672310Y-185393328D01*
X232672310Y-185393328D02*
X232958024Y-185393328D01*
X232958024Y-185393328D02*
X233100881Y-185464757D01*
X233100881Y-185464757D02*
X233172310Y-185536185D01*
X233172310Y-185536185D02*
X233243738Y-185679042D01*
X233243738Y-185679042D02*
X233243738Y-186107614D01*
X233243738Y-186107614D02*
X233172310Y-186250471D01*
X233172310Y-186250471D02*
X233100881Y-186321900D01*
X233100881Y-186321900D02*
X232958024Y-186393328D01*
X232958024Y-186393328D02*
X232672310Y-186393328D01*
X232672310Y-186393328D02*
X232529452Y-186321900D01*
D10*
D11*
X177002200Y-181507200D02*
X285002200Y-181507200D01*
D10*
D11*
X178386598Y-183621900D02*
X178600884Y-183693328D01*
X178600884Y-183693328D02*
X178958026Y-183693328D01*
X178958026Y-183693328D02*
X179100884Y-183621900D01*
X179100884Y-183621900D02*
X179172312Y-183550471D01*
X179172312Y-183550471D02*
X179243741Y-183407614D01*
X179243741Y-183407614D02*
X179243741Y-183264757D01*
X179243741Y-183264757D02*
X179172312Y-183121900D01*
X179172312Y-183121900D02*
X179100884Y-183050471D01*
X179100884Y-183050471D02*
X178958026Y-182979042D01*
X178958026Y-182979042D02*
X178672312Y-182907614D01*
X178672312Y-182907614D02*
X178529455Y-182836185D01*
X178529455Y-182836185D02*
X178458026Y-182764757D01*
X178458026Y-182764757D02*
X178386598Y-182621900D01*
X178386598Y-182621900D02*
X178386598Y-182479042D01*
X178386598Y-182479042D02*
X178458026Y-182336185D01*
X178458026Y-182336185D02*
X178529455Y-182264757D01*
X178529455Y-182264757D02*
X178672312Y-182193328D01*
X178672312Y-182193328D02*
X179029455Y-182193328D01*
X179029455Y-182193328D02*
X179243741Y-182264757D01*
X179886597Y-183693328D02*
X179886597Y-182193328D01*
X180529455Y-183693328D02*
X180529455Y-182907614D01*
X180529455Y-182907614D02*
X180458026Y-182764757D01*
X180458026Y-182764757D02*
X180315169Y-182693328D01*
X180315169Y-182693328D02*
X180100883Y-182693328D01*
X180100883Y-182693328D02*
X179958026Y-182764757D01*
X179958026Y-182764757D02*
X179886597Y-182836185D01*
X181815169Y-183621900D02*
X181672312Y-183693328D01*
X181672312Y-183693328D02*
X181386598Y-183693328D01*
X181386598Y-183693328D02*
X181243740Y-183621900D01*
X181243740Y-183621900D02*
X181172312Y-183479042D01*
X181172312Y-183479042D02*
X181172312Y-182907614D01*
X181172312Y-182907614D02*
X181243740Y-182764757D01*
X181243740Y-182764757D02*
X181386598Y-182693328D01*
X181386598Y-182693328D02*
X181672312Y-182693328D01*
X181672312Y-182693328D02*
X181815169Y-182764757D01*
X181815169Y-182764757D02*
X181886598Y-182907614D01*
X181886598Y-182907614D02*
X181886598Y-183050471D01*
X181886598Y-183050471D02*
X181172312Y-183193328D01*
X183100883Y-183621900D02*
X182958026Y-183693328D01*
X182958026Y-183693328D02*
X182672312Y-183693328D01*
X182672312Y-183693328D02*
X182529454Y-183621900D01*
X182529454Y-183621900D02*
X182458026Y-183479042D01*
X182458026Y-183479042D02*
X182458026Y-182907614D01*
X182458026Y-182907614D02*
X182529454Y-182764757D01*
X182529454Y-182764757D02*
X182672312Y-182693328D01*
X182672312Y-182693328D02*
X182958026Y-182693328D01*
X182958026Y-182693328D02*
X183100883Y-182764757D01*
X183100883Y-182764757D02*
X183172312Y-182907614D01*
X183172312Y-182907614D02*
X183172312Y-183050471D01*
X183172312Y-183050471D02*
X182458026Y-183193328D01*
X183600883Y-182693328D02*
X184172311Y-182693328D01*
X183815168Y-182193328D02*
X183815168Y-183479042D01*
X183815168Y-183479042D02*
X183886597Y-183621900D01*
X183886597Y-183621900D02*
X184029454Y-183693328D01*
X184029454Y-183693328D02*
X184172311Y-183693328D01*
X184672311Y-183550471D02*
X184743740Y-183621900D01*
X184743740Y-183621900D02*
X184672311Y-183693328D01*
X184672311Y-183693328D02*
X184600883Y-183621900D01*
X184600883Y-183621900D02*
X184672311Y-183550471D01*
X184672311Y-183550471D02*
X184672311Y-183693328D01*
X184672311Y-182764757D02*
X184743740Y-182836185D01*
X184743740Y-182836185D02*
X184672311Y-182907614D01*
X184672311Y-182907614D02*
X184600883Y-182836185D01*
X184600883Y-182836185D02*
X184672311Y-182764757D01*
X184672311Y-182764757D02*
X184672311Y-182907614D01*
D10*
D12*
X178485282Y-180256957D02*
X179199568Y-180256957D01*
X178342425Y-180685528D02*
X178842425Y-179185528D01*
X178842425Y-179185528D02*
X179342425Y-180685528D01*
X180413853Y-180614100D02*
X180270996Y-180685528D01*
X180270996Y-180685528D02*
X179985282Y-180685528D01*
X179985282Y-180685528D02*
X179842424Y-180614100D01*
X179842424Y-180614100D02*
X179770996Y-180471242D01*
X179770996Y-180471242D02*
X179770996Y-179899814D01*
X179770996Y-179899814D02*
X179842424Y-179756957D01*
X179842424Y-179756957D02*
X179985282Y-179685528D01*
X179985282Y-179685528D02*
X180270996Y-179685528D01*
X180270996Y-179685528D02*
X180413853Y-179756957D01*
X180413853Y-179756957D02*
X180485282Y-179899814D01*
X180485282Y-179899814D02*
X180485282Y-180042671D01*
X180485282Y-180042671D02*
X179770996Y-180185528D01*
X181342424Y-180685528D02*
X181199567Y-180614100D01*
X181199567Y-180614100D02*
X181128138Y-180542671D01*
X181128138Y-180542671D02*
X181056710Y-180399814D01*
X181056710Y-180399814D02*
X181056710Y-179971242D01*
X181056710Y-179971242D02*
X181128138Y-179828385D01*
X181128138Y-179828385D02*
X181199567Y-179756957D01*
X181199567Y-179756957D02*
X181342424Y-179685528D01*
X181342424Y-179685528D02*
X181556710Y-179685528D01*
X181556710Y-179685528D02*
X181699567Y-179756957D01*
X181699567Y-179756957D02*
X181770996Y-179828385D01*
X181770996Y-179828385D02*
X181842424Y-179971242D01*
X181842424Y-179971242D02*
X181842424Y-180399814D01*
X181842424Y-180399814D02*
X181770996Y-180542671D01*
X181770996Y-180542671D02*
X181699567Y-180614100D01*
X181699567Y-180614100D02*
X181556710Y-180685528D01*
X181556710Y-180685528D02*
X181342424Y-180685528D01*
X182485281Y-179685528D02*
X182485281Y-180685528D01*
X182485281Y-179828385D02*
X182556710Y-179756957D01*
X182556710Y-179756957D02*
X182699567Y-179685528D01*
X182699567Y-179685528D02*
X182913853Y-179685528D01*
X182913853Y-179685528D02*
X183056710Y-179756957D01*
X183056710Y-179756957D02*
X183128139Y-179899814D01*
X183128139Y-179899814D02*
X183128139Y-180685528D01*
X184556710Y-180685528D02*
X183842424Y-180685528D01*
X183842424Y-180685528D02*
X183842424Y-179185528D01*
X185699568Y-180685528D02*
X185699568Y-179899814D01*
X185699568Y-179899814D02*
X185628139Y-179756957D01*
X185628139Y-179756957D02*
X185485282Y-179685528D01*
X185485282Y-179685528D02*
X185199568Y-179685528D01*
X185199568Y-179685528D02*
X185056710Y-179756957D01*
X185699568Y-180614100D02*
X185556710Y-180685528D01*
X185556710Y-180685528D02*
X185199568Y-180685528D01*
X185199568Y-180685528D02*
X185056710Y-180614100D01*
X185056710Y-180614100D02*
X184985282Y-180471242D01*
X184985282Y-180471242D02*
X184985282Y-180328385D01*
X184985282Y-180328385D02*
X185056710Y-180185528D01*
X185056710Y-180185528D02*
X185199568Y-180114100D01*
X185199568Y-180114100D02*
X185556710Y-180114100D01*
X185556710Y-180114100D02*
X185699568Y-180042671D01*
X186413853Y-180685528D02*
X186413853Y-179185528D01*
X186413853Y-179756957D02*
X186556711Y-179685528D01*
X186556711Y-179685528D02*
X186842425Y-179685528D01*
X186842425Y-179685528D02*
X186985282Y-179756957D01*
X186985282Y-179756957D02*
X187056711Y-179828385D01*
X187056711Y-179828385D02*
X187128139Y-179971242D01*
X187128139Y-179971242D02*
X187128139Y-180399814D01*
X187128139Y-180399814D02*
X187056711Y-180542671D01*
X187056711Y-180542671D02*
X186985282Y-180614100D01*
X186985282Y-180614100D02*
X186842425Y-180685528D01*
X186842425Y-180685528D02*
X186556711Y-180685528D01*
X186556711Y-180685528D02*
X186413853Y-180614100D01*
X187699568Y-180614100D02*
X187842425Y-180685528D01*
X187842425Y-180685528D02*
X188128139Y-180685528D01*
X188128139Y-180685528D02*
X188270996Y-180614100D01*
X188270996Y-180614100D02*
X188342425Y-180471242D01*
X188342425Y-180471242D02*
X188342425Y-180399814D01*
X188342425Y-180399814D02*
X188270996Y-180256957D01*
X188270996Y-180256957D02*
X188128139Y-180185528D01*
X188128139Y-180185528D02*
X187913854Y-180185528D01*
X187913854Y-180185528D02*
X187770996Y-180114100D01*
X187770996Y-180114100D02*
X187699568Y-179971242D01*
X187699568Y-179971242D02*
X187699568Y-179899814D01*
X187699568Y-179899814D02*
X187770996Y-179756957D01*
X187770996Y-179756957D02*
X187913854Y-179685528D01*
X187913854Y-179685528D02*
X188128139Y-179685528D01*
X188128139Y-179685528D02*
X188270996Y-179756957D01*
D10*
D11*
D10*
D11*
D10*
D11*
D10*
D11*
D10*
D11*
X197002200Y-191507200D02*
X197002200Y-194507200D01*
D10*
D11*
X261002200Y-191507200D02*
X261002200Y-198007200D01*
D14*
G04 #@! TO.C,ICSP1*
X183969848Y-87089949D03*
X183969848Y-85819949D03*
X183969848Y-84549949D03*
X183969848Y-83279949D03*
D15*
X185124848Y-82644949D03*
X185124848Y-83914949D03*
X185124848Y-85184949D03*
X185124848Y-86454949D03*
X185124848Y-87724949D03*
G04 #@! TD*
D16*
G04 #@! TO.C,J20*
X183879848Y-102189949D03*
D17*
X185354848Y-103739949D03*
X182404848Y-103739949D03*
G04 #@! TD*
D18*
X181330000Y-53815000D02*
X223370000Y-53815000D01*
X223370000Y-107785000D01*
X181330000Y-107785000D01*
X181330000Y-53815000D01*
X198345000Y-68350000D02*
X200380000Y-68350000D01*
X200380000Y-82385000D01*
X198345000Y-82385000D01*
X198345000Y-68350000D01*
X205600519Y-59584758D02*
X205600032Y-62444758D01*
X211033304Y-59566912D02*
G75*
G03*
X210602743Y-59156914I-410438J54D01*
G01*
X211823450Y-58997244D02*
G75*
G03*
X211392986Y-58587246I-410784J-314D01*
G01*
X205600112Y-62444758D02*
G75*
G03*
X206030519Y-62854756I410387J-100D01*
G01*
X210612744Y-62857324D02*
G75*
G03*
X211022742Y-62426913I122J410366D01*
G01*
X211033230Y-59566912D02*
X211022743Y-62426913D01*
X205210002Y-58580443D02*
X206010000Y-58580000D01*
X211432344Y-63670126D02*
G75*
G03*
X211842343Y-63239586I22J410468D01*
G01*
X210612744Y-62857400D02*
X206030519Y-62854757D01*
X210602743Y-58582643D02*
G75*
G03*
X210602743Y-59156913I-24J-287135D01*
G01*
X211842343Y-63239586D02*
X211823473Y-58997244D01*
X205237169Y-63655789D02*
X211432344Y-63670073D01*
X206010000Y-59154270D02*
G75*
G03*
X206010000Y-58580000I-3J287135D01*
G01*
X205210002Y-58580461D02*
G75*
G03*
X204800003Y-59010930I-303J-410197D01*
G01*
X204806667Y-63245790D02*
G75*
G03*
X205237169Y-63655789I410232J-268D01*
G01*
X204800521Y-59010930D02*
X204806682Y-63245790D01*
X211392986Y-58587245D02*
X210602743Y-58582642D01*
X206010000Y-59154278D02*
G75*
G03*
X205600002Y-59584758I99J-410580D01*
G01*
M02*
