M48
; DRILL file {KiCad 7.0.6} date Mon Jul 10 12:59:04 2023
; FORMAT={-:-/ absolute / inch / decimal}
; #@! TF.CreationDate,2023-07-10T12:59:04+01:00
; #@! TF.GenerationSoftware,Kicad,Pcbnew,7.0.6
; #@! TF.FileFunction,Plated,1,2,PTH
FMAT,2
INCH
; #@! TA.AperFunction,Plated,PTH,ViaDrill
T1C0.0118
; #@! TA.AperFunction,Plated,PTH,ViaDrill
T2C0.0157
%
G90
G05
T1
X8.0886Y-3.2587
X8.465Y-2.9795
T2
X7.1848Y-3.5285
X7.2398Y-4.0028
X7.2429Y-3.5067
X7.3751Y-3.4915
X7.4533Y-3.1202
X7.5437Y-3.4209
X7.5678Y-2.8264
X7.5966Y-3.0008
X7.6335Y-3.5264
X7.7031Y-3.4244
X7.7118Y-3.6905
X7.7178Y-2.7732
X7.7311Y-3.6201
X7.7683Y-3.9388
X7.7842Y-4.1976
X7.8059Y-4.1189
X7.8398Y-3.4697
X7.8406Y-3.3709
X7.8425Y-3.5705
X7.8488Y-2.5677
X7.9004Y-3.7358
X7.9047Y-3.8425
X7.9148Y-3.6978
X7.9173Y-3.6055
X7.9177Y-3.6535
X7.9262Y-3.9468
X7.9299Y-4.1287
X7.9527Y-3.9681
X7.9919Y-3.5455
X7.9929Y-4.0276
X8.0126Y-3.4539
X8.0256Y-4.1307
X8.035Y-4.0811
X8.0606Y-3.1984
X8.0701Y-4.0614
X8.0846Y-3.8134
X8.0921Y-3.0291
X8.0961Y-3.548
X8.1248Y-3.6272
X8.1398Y-3.8701
X8.1409Y-4.1151
X8.1602Y-4.0563
X8.1843Y-2.2295
X8.2117Y-4.0384
X8.2256Y-2.3114
X8.2279Y-3.6146
X8.2374Y-4.0652
X8.2437Y-3.9559
X8.2443Y-2.8074
X8.2447Y-2.8845
X8.2862Y-3.9647
X8.2941Y-4.148
X8.2953Y-4.1791
X8.3008Y-3.9968
X8.3268Y-2.9224
X8.3358Y-3.85
X8.3461Y-3.6
X8.4157Y-3.4252
X8.4354Y-3.1248
X8.465Y-3.2819
X8.4878Y-4.0244
X8.4886Y-4.076
X8.5874Y-3.3358
X8.635Y-3.9701
X8.6413Y-3.3346
X8.6783Y-3.4248
X8.6921Y-3.3382
X8.6953Y-4.1598
X8.7378Y-4.1909
T0
M30
