%TF.GenerationSoftware,KiCad,Pcbnew,7.0.6*%
%TF.CreationDate,2023-07-10T12:59:03+01:00*%
%TF.ProjectId,wireless_rainmeter_42x54x1_6mm,77697265-6c65-4737-935f-7261696e6d65,5.3*%
%TF.SameCoordinates,Original*%
%TF.FileFunction,Drillmap*%
%TF.FilePolarity,Positive*%
%FSLAX45Y45*%
G04 Gerber Fmt 4.5, Leading zero omitted, Abs format (unit mm)*
G04 Created by KiCad (PCBNEW 7.0.6) date 2023-07-10 12:59:03*
%MOMM*%
%LPD*%
G01*
G04 APERTURE LIST*
%ADD10C,0.100000*%
%ADD11C,0.200000*%
%ADD12C,0.030000*%
%ADD13C,0.040000*%
G04 APERTURE END LIST*
D10*
X18133000Y-5381500D02*
X22337000Y-5381500D01*
X22337000Y-10778500D01*
X18133000Y-10778500D01*
X18133000Y-5381500D01*
X19834500Y-6835000D02*
X20038000Y-6835000D01*
X20038000Y-8238500D01*
X19834500Y-8238500D01*
X19834500Y-6835000D01*
X20560052Y-5958476D02*
X20560003Y-6244476D01*
X21103330Y-5956691D02*
G75*
G03*
X21060274Y-5915691I-41044J5D01*
G01*
X21182345Y-5899724D02*
G75*
G03*
X21139299Y-5858725I-41078J-31D01*
G01*
X20560011Y-6244476D02*
G75*
G03*
X20603052Y-6285476I41039J-10D01*
G01*
X21061274Y-6285732D02*
G75*
G03*
X21102274Y-6242691I12J41037D01*
G01*
X21103323Y-5956691D02*
X21102274Y-6242691D01*
X20521000Y-5858044D02*
X20601000Y-5858000D01*
X21143234Y-6367013D02*
G75*
G03*
X21184234Y-6323959I2J41047D01*
G01*
X21061274Y-6285740D02*
X20603052Y-6285476D01*
X21060274Y-5858264D02*
G75*
G03*
X21060274Y-5915691I-2J-28714D01*
G01*
X21184234Y-6323959D02*
X21182347Y-5899724D01*
X20523717Y-6365579D02*
X21143234Y-6367007D01*
X20601000Y-5915427D02*
G75*
G03*
X20601000Y-5858000I0J28714D01*
G01*
X20521000Y-5858046D02*
G75*
G03*
X20480000Y-5901093I-30J-41020D01*
G01*
X20480667Y-6324579D02*
G75*
G03*
X20523717Y-6365579I41023J-27D01*
G01*
X20480052Y-5901093D02*
X20480668Y-6324579D01*
X21139299Y-5858724D02*
X21060274Y-5858264D01*
X20601000Y-5915428D02*
G75*
G03*
X20560000Y-5958476I10J-41058D01*
G01*
D11*
D12*
X20530000Y-8262000D02*
X20560000Y-8292000D01*
X20560000Y-8262000D02*
X20530000Y-8292000D01*
X21486000Y-7553000D02*
X21516000Y-7583000D01*
X21516000Y-7553000D02*
X21486000Y-7583000D01*
D13*
X18269485Y-8962495D02*
G75*
G03*
X18269485Y-8962495I-20000J0D01*
G01*
X18408985Y-10167045D02*
G75*
G03*
X18408985Y-10167045I-20000J0D01*
G01*
X18416985Y-8907000D02*
G75*
G03*
X18416985Y-8907000I-20000J0D01*
G01*
X18752633Y-8868445D02*
G75*
G03*
X18752633Y-8868445I-20000J0D01*
G01*
X18951500Y-7925250D02*
G75*
G03*
X18951500Y-7925250I-20000J0D01*
G01*
X19181000Y-8689000D02*
G75*
G03*
X19181000Y-8689000I-20000J0D01*
G01*
X19242250Y-7179000D02*
G75*
G03*
X19242250Y-7179000I-20000J0D01*
G01*
X19315250Y-7622000D02*
G75*
G03*
X19315250Y-7622000I-20000J0D01*
G01*
X19409000Y-8957000D02*
G75*
G03*
X19409000Y-8957000I-20000J0D01*
G01*
X19586000Y-8698000D02*
G75*
G03*
X19586000Y-8698000I-20000J0D01*
G01*
X19607985Y-9373995D02*
G75*
G03*
X19607985Y-9373995I-20000J0D01*
G01*
X19623250Y-7044000D02*
G75*
G03*
X19623250Y-7044000I-20000J0D01*
G01*
X19656985Y-9194995D02*
G75*
G03*
X19656985Y-9194995I-20000J0D01*
G01*
X19751485Y-10004495D02*
G75*
G03*
X19751485Y-10004495I-20000J0D01*
G01*
X19791985Y-10661995D02*
G75*
G03*
X19791985Y-10661995I-20000J0D01*
G01*
X19846985Y-10461995D02*
G75*
G03*
X19846985Y-10461995I-20000J0D01*
G01*
X19932985Y-8812995D02*
G75*
G03*
X19932985Y-8812995I-20000J0D01*
G01*
X19935000Y-8562000D02*
G75*
G03*
X19935000Y-8562000I-20000J0D01*
G01*
X19939985Y-9068995D02*
G75*
G03*
X19939985Y-9068995I-20000J0D01*
G01*
X19956000Y-6522000D02*
G75*
G03*
X19956000Y-6522000I-20000J0D01*
G01*
X20086985Y-9488995D02*
G75*
G03*
X20086985Y-9488995I-20000J0D01*
G01*
X20097985Y-9759995D02*
G75*
G03*
X20097985Y-9759995I-20000J0D01*
G01*
X20123510Y-9392470D02*
G75*
G03*
X20123510Y-9392470I-20000J0D01*
G01*
X20129985Y-9157995D02*
G75*
G03*
X20129985Y-9157995I-20000J0D01*
G01*
X20130985Y-9279995D02*
G75*
G03*
X20130985Y-9279995I-20000J0D01*
G01*
X20152595Y-10024843D02*
G75*
G03*
X20152595Y-10024843I-20000J0D01*
G01*
X20161985Y-10486995D02*
G75*
G03*
X20161985Y-10486995I-20000J0D01*
G01*
X20219985Y-10078995D02*
G75*
G03*
X20219985Y-10078995I-20000J0D01*
G01*
X20319435Y-9005640D02*
G75*
G03*
X20319435Y-9005640I-20000J0D01*
G01*
X20321985Y-10229995D02*
G75*
G03*
X20321985Y-10229995I-20000J0D01*
G01*
X20371985Y-8772995D02*
G75*
G03*
X20371985Y-8772995I-20000J0D01*
G01*
X20404985Y-10491995D02*
G75*
G03*
X20404985Y-10491995I-20000J0D01*
G01*
X20429000Y-10366000D02*
G75*
G03*
X20429000Y-10366000I-20000J0D01*
G01*
X20494000Y-8124000D02*
G75*
G03*
X20494000Y-8124000I-20000J0D01*
G01*
X20518000Y-10316000D02*
G75*
G03*
X20518000Y-10316000I-20000J0D01*
G01*
X20554985Y-9685995D02*
G75*
G03*
X20554985Y-9685995I-20000J0D01*
G01*
X20574000Y-7694000D02*
G75*
G03*
X20574000Y-7694000I-20000J0D01*
G01*
X20583985Y-9011995D02*
G75*
G03*
X20583985Y-9011995I-20000J0D01*
G01*
X20656985Y-9212995D02*
G75*
G03*
X20656985Y-9212995I-20000J0D01*
G01*
X20694985Y-9829995D02*
G75*
G03*
X20694985Y-9829995I-20000J0D01*
G01*
X20697985Y-10452445D02*
G75*
G03*
X20697985Y-10452445I-20000J0D01*
G01*
X20746985Y-10302995D02*
G75*
G03*
X20746985Y-10302995I-20000J0D01*
G01*
X20808000Y-5663000D02*
G75*
G03*
X20808000Y-5663000I-20000J0D01*
G01*
X20877608Y-10257545D02*
G75*
G03*
X20877608Y-10257545I-20000J0D01*
G01*
X20913000Y-5871000D02*
G75*
G03*
X20913000Y-5871000I-20000J0D01*
G01*
X20918985Y-9180995D02*
G75*
G03*
X20918985Y-9180995I-20000J0D01*
G01*
X20942932Y-10325545D02*
G75*
G03*
X20942932Y-10325545I-20000J0D01*
G01*
X20958985Y-10047995D02*
G75*
G03*
X20958985Y-10047995I-20000J0D01*
G01*
X20960500Y-7130750D02*
G75*
G03*
X20960500Y-7130750I-20000J0D01*
G01*
X20961500Y-7326750D02*
G75*
G03*
X20961500Y-7326750I-20000J0D01*
G01*
X21066985Y-10070248D02*
G75*
G03*
X21066985Y-10070248I-20000J0D01*
G01*
X21086985Y-10535995D02*
G75*
G03*
X21086985Y-10535995I-20000J0D01*
G01*
X21089985Y-10614995D02*
G75*
G03*
X21089985Y-10614995I-20000J0D01*
G01*
X21103985Y-10151995D02*
G75*
G03*
X21103985Y-10151995I-20000J0D01*
G01*
X21170000Y-7423000D02*
G75*
G03*
X21170000Y-7423000I-20000J0D01*
G01*
X21193000Y-9779000D02*
G75*
G03*
X21193000Y-9779000I-20000J0D01*
G01*
X21219000Y-9144000D02*
G75*
G03*
X21219000Y-9144000I-20000J0D01*
G01*
X21396000Y-8700000D02*
G75*
G03*
X21396000Y-8700000I-20000J0D01*
G01*
X21446000Y-7937000D02*
G75*
G03*
X21446000Y-7937000I-20000J0D01*
G01*
X21521000Y-8336000D02*
G75*
G03*
X21521000Y-8336000I-20000J0D01*
G01*
X21579000Y-10222000D02*
G75*
G03*
X21579000Y-10222000I-20000J0D01*
G01*
X21581000Y-10353000D02*
G75*
G03*
X21581000Y-10353000I-20000J0D01*
G01*
X21832000Y-8473000D02*
G75*
G03*
X21832000Y-8473000I-20000J0D01*
G01*
X21952985Y-10083995D02*
G75*
G03*
X21952985Y-10083995I-20000J0D01*
G01*
X21969000Y-8470000D02*
G75*
G03*
X21969000Y-8470000I-20000J0D01*
G01*
X22062985Y-8698995D02*
G75*
G03*
X22062985Y-8698995I-20000J0D01*
G01*
X22098000Y-8479000D02*
G75*
G03*
X22098000Y-8479000I-20000J0D01*
G01*
X22105985Y-10565995D02*
G75*
G03*
X22105985Y-10565995I-20000J0D01*
G01*
X22214000Y-10645000D02*
G75*
G03*
X22214000Y-10645000I-20000J0D01*
G01*
D11*
X18388777Y-11094984D02*
X18388777Y-10894984D01*
X18388777Y-10894984D02*
X18436396Y-10894984D01*
X18436396Y-10894984D02*
X18464967Y-10904508D01*
X18464967Y-10904508D02*
X18484015Y-10923555D01*
X18484015Y-10923555D02*
X18493539Y-10942603D01*
X18493539Y-10942603D02*
X18503063Y-10980698D01*
X18503063Y-10980698D02*
X18503063Y-11009270D01*
X18503063Y-11009270D02*
X18493539Y-11047365D01*
X18493539Y-11047365D02*
X18484015Y-11066412D01*
X18484015Y-11066412D02*
X18464967Y-11085460D01*
X18464967Y-11085460D02*
X18436396Y-11094984D01*
X18436396Y-11094984D02*
X18388777Y-11094984D01*
X18588777Y-11094984D02*
X18588777Y-10961650D01*
X18588777Y-10999746D02*
X18598301Y-10980698D01*
X18598301Y-10980698D02*
X18607824Y-10971174D01*
X18607824Y-10971174D02*
X18626872Y-10961650D01*
X18626872Y-10961650D02*
X18645920Y-10961650D01*
X18712586Y-11094984D02*
X18712586Y-10961650D01*
X18712586Y-10894984D02*
X18703063Y-10904508D01*
X18703063Y-10904508D02*
X18712586Y-10914031D01*
X18712586Y-10914031D02*
X18722110Y-10904508D01*
X18722110Y-10904508D02*
X18712586Y-10894984D01*
X18712586Y-10894984D02*
X18712586Y-10914031D01*
X18836396Y-11094984D02*
X18817348Y-11085460D01*
X18817348Y-11085460D02*
X18807824Y-11066412D01*
X18807824Y-11066412D02*
X18807824Y-10894984D01*
X18941158Y-11094984D02*
X18922110Y-11085460D01*
X18922110Y-11085460D02*
X18912586Y-11066412D01*
X18912586Y-11066412D02*
X18912586Y-10894984D01*
X19169729Y-11094984D02*
X19169729Y-10894984D01*
X19169729Y-10894984D02*
X19236396Y-11037841D01*
X19236396Y-11037841D02*
X19303063Y-10894984D01*
X19303063Y-10894984D02*
X19303063Y-11094984D01*
X19484015Y-11094984D02*
X19484015Y-10990222D01*
X19484015Y-10990222D02*
X19474491Y-10971174D01*
X19474491Y-10971174D02*
X19455444Y-10961650D01*
X19455444Y-10961650D02*
X19417348Y-10961650D01*
X19417348Y-10961650D02*
X19398301Y-10971174D01*
X19484015Y-11085460D02*
X19464967Y-11094984D01*
X19464967Y-11094984D02*
X19417348Y-11094984D01*
X19417348Y-11094984D02*
X19398301Y-11085460D01*
X19398301Y-11085460D02*
X19388777Y-11066412D01*
X19388777Y-11066412D02*
X19388777Y-11047365D01*
X19388777Y-11047365D02*
X19398301Y-11028317D01*
X19398301Y-11028317D02*
X19417348Y-11018793D01*
X19417348Y-11018793D02*
X19464967Y-11018793D01*
X19464967Y-11018793D02*
X19484015Y-11009270D01*
X19579253Y-10961650D02*
X19579253Y-11161650D01*
X19579253Y-10971174D02*
X19598301Y-10961650D01*
X19598301Y-10961650D02*
X19636396Y-10961650D01*
X19636396Y-10961650D02*
X19655444Y-10971174D01*
X19655444Y-10971174D02*
X19664967Y-10980698D01*
X19664967Y-10980698D02*
X19674491Y-10999746D01*
X19674491Y-10999746D02*
X19674491Y-11056889D01*
X19674491Y-11056889D02*
X19664967Y-11075936D01*
X19664967Y-11075936D02*
X19655444Y-11085460D01*
X19655444Y-11085460D02*
X19636396Y-11094984D01*
X19636396Y-11094984D02*
X19598301Y-11094984D01*
X19598301Y-11094984D02*
X19579253Y-11085460D01*
X19760205Y-11075936D02*
X19769729Y-11085460D01*
X19769729Y-11085460D02*
X19760205Y-11094984D01*
X19760205Y-11094984D02*
X19750682Y-11085460D01*
X19750682Y-11085460D02*
X19760205Y-11075936D01*
X19760205Y-11075936D02*
X19760205Y-11094984D01*
X19760205Y-10971174D02*
X19769729Y-10980698D01*
X19769729Y-10980698D02*
X19760205Y-10990222D01*
X19760205Y-10990222D02*
X19750682Y-10980698D01*
X19750682Y-10980698D02*
X19760205Y-10971174D01*
X19760205Y-10971174D02*
X19760205Y-10990222D01*
D12*
X18098000Y-11408500D02*
X18128000Y-11438500D01*
X18128000Y-11408500D02*
X18098000Y-11438500D01*
D11*
X18426872Y-11314984D02*
X18445920Y-11314984D01*
X18445920Y-11314984D02*
X18464967Y-11324508D01*
X18464967Y-11324508D02*
X18474491Y-11334031D01*
X18474491Y-11334031D02*
X18484015Y-11353079D01*
X18484015Y-11353079D02*
X18493539Y-11391174D01*
X18493539Y-11391174D02*
X18493539Y-11438793D01*
X18493539Y-11438793D02*
X18484015Y-11476888D01*
X18484015Y-11476888D02*
X18474491Y-11495936D01*
X18474491Y-11495936D02*
X18464967Y-11505460D01*
X18464967Y-11505460D02*
X18445920Y-11514984D01*
X18445920Y-11514984D02*
X18426872Y-11514984D01*
X18426872Y-11514984D02*
X18407824Y-11505460D01*
X18407824Y-11505460D02*
X18398301Y-11495936D01*
X18398301Y-11495936D02*
X18388777Y-11476888D01*
X18388777Y-11476888D02*
X18379253Y-11438793D01*
X18379253Y-11438793D02*
X18379253Y-11391174D01*
X18379253Y-11391174D02*
X18388777Y-11353079D01*
X18388777Y-11353079D02*
X18398301Y-11334031D01*
X18398301Y-11334031D02*
X18407824Y-11324508D01*
X18407824Y-11324508D02*
X18426872Y-11314984D01*
X18579253Y-11495936D02*
X18588777Y-11505460D01*
X18588777Y-11505460D02*
X18579253Y-11514984D01*
X18579253Y-11514984D02*
X18569729Y-11505460D01*
X18569729Y-11505460D02*
X18579253Y-11495936D01*
X18579253Y-11495936D02*
X18579253Y-11514984D01*
X18655444Y-11314984D02*
X18779253Y-11314984D01*
X18779253Y-11314984D02*
X18712586Y-11391174D01*
X18712586Y-11391174D02*
X18741158Y-11391174D01*
X18741158Y-11391174D02*
X18760205Y-11400698D01*
X18760205Y-11400698D02*
X18769729Y-11410222D01*
X18769729Y-11410222D02*
X18779253Y-11429269D01*
X18779253Y-11429269D02*
X18779253Y-11476888D01*
X18779253Y-11476888D02*
X18769729Y-11495936D01*
X18769729Y-11495936D02*
X18760205Y-11505460D01*
X18760205Y-11505460D02*
X18741158Y-11514984D01*
X18741158Y-11514984D02*
X18684015Y-11514984D01*
X18684015Y-11514984D02*
X18664967Y-11505460D01*
X18664967Y-11505460D02*
X18655444Y-11495936D01*
X18903063Y-11314984D02*
X18922110Y-11314984D01*
X18922110Y-11314984D02*
X18941158Y-11324508D01*
X18941158Y-11324508D02*
X18950682Y-11334031D01*
X18950682Y-11334031D02*
X18960205Y-11353079D01*
X18960205Y-11353079D02*
X18969729Y-11391174D01*
X18969729Y-11391174D02*
X18969729Y-11438793D01*
X18969729Y-11438793D02*
X18960205Y-11476888D01*
X18960205Y-11476888D02*
X18950682Y-11495936D01*
X18950682Y-11495936D02*
X18941158Y-11505460D01*
X18941158Y-11505460D02*
X18922110Y-11514984D01*
X18922110Y-11514984D02*
X18903063Y-11514984D01*
X18903063Y-11514984D02*
X18884015Y-11505460D01*
X18884015Y-11505460D02*
X18874491Y-11495936D01*
X18874491Y-11495936D02*
X18864967Y-11476888D01*
X18864967Y-11476888D02*
X18855444Y-11438793D01*
X18855444Y-11438793D02*
X18855444Y-11391174D01*
X18855444Y-11391174D02*
X18864967Y-11353079D01*
X18864967Y-11353079D02*
X18874491Y-11334031D01*
X18874491Y-11334031D02*
X18884015Y-11324508D01*
X18884015Y-11324508D02*
X18903063Y-11314984D01*
X19093539Y-11314984D02*
X19112586Y-11314984D01*
X19112586Y-11314984D02*
X19131634Y-11324508D01*
X19131634Y-11324508D02*
X19141158Y-11334031D01*
X19141158Y-11334031D02*
X19150682Y-11353079D01*
X19150682Y-11353079D02*
X19160205Y-11391174D01*
X19160205Y-11391174D02*
X19160205Y-11438793D01*
X19160205Y-11438793D02*
X19150682Y-11476888D01*
X19150682Y-11476888D02*
X19141158Y-11495936D01*
X19141158Y-11495936D02*
X19131634Y-11505460D01*
X19131634Y-11505460D02*
X19112586Y-11514984D01*
X19112586Y-11514984D02*
X19093539Y-11514984D01*
X19093539Y-11514984D02*
X19074491Y-11505460D01*
X19074491Y-11505460D02*
X19064967Y-11495936D01*
X19064967Y-11495936D02*
X19055444Y-11476888D01*
X19055444Y-11476888D02*
X19045920Y-11438793D01*
X19045920Y-11438793D02*
X19045920Y-11391174D01*
X19045920Y-11391174D02*
X19055444Y-11353079D01*
X19055444Y-11353079D02*
X19064967Y-11334031D01*
X19064967Y-11334031D02*
X19074491Y-11324508D01*
X19074491Y-11324508D02*
X19093539Y-11314984D01*
X19245920Y-11514984D02*
X19245920Y-11381650D01*
X19245920Y-11400698D02*
X19255444Y-11391174D01*
X19255444Y-11391174D02*
X19274491Y-11381650D01*
X19274491Y-11381650D02*
X19303063Y-11381650D01*
X19303063Y-11381650D02*
X19322110Y-11391174D01*
X19322110Y-11391174D02*
X19331634Y-11410222D01*
X19331634Y-11410222D02*
X19331634Y-11514984D01*
X19331634Y-11410222D02*
X19341158Y-11391174D01*
X19341158Y-11391174D02*
X19360205Y-11381650D01*
X19360205Y-11381650D02*
X19388777Y-11381650D01*
X19388777Y-11381650D02*
X19407825Y-11391174D01*
X19407825Y-11391174D02*
X19417348Y-11410222D01*
X19417348Y-11410222D02*
X19417348Y-11514984D01*
X19512586Y-11514984D02*
X19512586Y-11381650D01*
X19512586Y-11400698D02*
X19522110Y-11391174D01*
X19522110Y-11391174D02*
X19541158Y-11381650D01*
X19541158Y-11381650D02*
X19569729Y-11381650D01*
X19569729Y-11381650D02*
X19588777Y-11391174D01*
X19588777Y-11391174D02*
X19598301Y-11410222D01*
X19598301Y-11410222D02*
X19598301Y-11514984D01*
X19598301Y-11410222D02*
X19607825Y-11391174D01*
X19607825Y-11391174D02*
X19626872Y-11381650D01*
X19626872Y-11381650D02*
X19655444Y-11381650D01*
X19655444Y-11381650D02*
X19674491Y-11391174D01*
X19674491Y-11391174D02*
X19684015Y-11410222D01*
X19684015Y-11410222D02*
X19684015Y-11514984D01*
X20074491Y-11305460D02*
X19903063Y-11562603D01*
X20331634Y-11314984D02*
X20350682Y-11314984D01*
X20350682Y-11314984D02*
X20369729Y-11324508D01*
X20369729Y-11324508D02*
X20379253Y-11334031D01*
X20379253Y-11334031D02*
X20388777Y-11353079D01*
X20388777Y-11353079D02*
X20398301Y-11391174D01*
X20398301Y-11391174D02*
X20398301Y-11438793D01*
X20398301Y-11438793D02*
X20388777Y-11476888D01*
X20388777Y-11476888D02*
X20379253Y-11495936D01*
X20379253Y-11495936D02*
X20369729Y-11505460D01*
X20369729Y-11505460D02*
X20350682Y-11514984D01*
X20350682Y-11514984D02*
X20331634Y-11514984D01*
X20331634Y-11514984D02*
X20312587Y-11505460D01*
X20312587Y-11505460D02*
X20303063Y-11495936D01*
X20303063Y-11495936D02*
X20293539Y-11476888D01*
X20293539Y-11476888D02*
X20284015Y-11438793D01*
X20284015Y-11438793D02*
X20284015Y-11391174D01*
X20284015Y-11391174D02*
X20293539Y-11353079D01*
X20293539Y-11353079D02*
X20303063Y-11334031D01*
X20303063Y-11334031D02*
X20312587Y-11324508D01*
X20312587Y-11324508D02*
X20331634Y-11314984D01*
X20484015Y-11495936D02*
X20493539Y-11505460D01*
X20493539Y-11505460D02*
X20484015Y-11514984D01*
X20484015Y-11514984D02*
X20474491Y-11505460D01*
X20474491Y-11505460D02*
X20484015Y-11495936D01*
X20484015Y-11495936D02*
X20484015Y-11514984D01*
X20617348Y-11314984D02*
X20636396Y-11314984D01*
X20636396Y-11314984D02*
X20655444Y-11324508D01*
X20655444Y-11324508D02*
X20664968Y-11334031D01*
X20664968Y-11334031D02*
X20674491Y-11353079D01*
X20674491Y-11353079D02*
X20684015Y-11391174D01*
X20684015Y-11391174D02*
X20684015Y-11438793D01*
X20684015Y-11438793D02*
X20674491Y-11476888D01*
X20674491Y-11476888D02*
X20664968Y-11495936D01*
X20664968Y-11495936D02*
X20655444Y-11505460D01*
X20655444Y-11505460D02*
X20636396Y-11514984D01*
X20636396Y-11514984D02*
X20617348Y-11514984D01*
X20617348Y-11514984D02*
X20598301Y-11505460D01*
X20598301Y-11505460D02*
X20588777Y-11495936D01*
X20588777Y-11495936D02*
X20579253Y-11476888D01*
X20579253Y-11476888D02*
X20569729Y-11438793D01*
X20569729Y-11438793D02*
X20569729Y-11391174D01*
X20569729Y-11391174D02*
X20579253Y-11353079D01*
X20579253Y-11353079D02*
X20588777Y-11334031D01*
X20588777Y-11334031D02*
X20598301Y-11324508D01*
X20598301Y-11324508D02*
X20617348Y-11314984D01*
X20874491Y-11514984D02*
X20760206Y-11514984D01*
X20817348Y-11514984D02*
X20817348Y-11314984D01*
X20817348Y-11314984D02*
X20798301Y-11343555D01*
X20798301Y-11343555D02*
X20779253Y-11362603D01*
X20779253Y-11362603D02*
X20760206Y-11372127D01*
X21064968Y-11514984D02*
X20950682Y-11514984D01*
X21007825Y-11514984D02*
X21007825Y-11314984D01*
X21007825Y-11314984D02*
X20988777Y-11343555D01*
X20988777Y-11343555D02*
X20969729Y-11362603D01*
X20969729Y-11362603D02*
X20950682Y-11372127D01*
X21179253Y-11400698D02*
X21160206Y-11391174D01*
X21160206Y-11391174D02*
X21150682Y-11381650D01*
X21150682Y-11381650D02*
X21141158Y-11362603D01*
X21141158Y-11362603D02*
X21141158Y-11353079D01*
X21141158Y-11353079D02*
X21150682Y-11334031D01*
X21150682Y-11334031D02*
X21160206Y-11324508D01*
X21160206Y-11324508D02*
X21179253Y-11314984D01*
X21179253Y-11314984D02*
X21217349Y-11314984D01*
X21217349Y-11314984D02*
X21236396Y-11324508D01*
X21236396Y-11324508D02*
X21245920Y-11334031D01*
X21245920Y-11334031D02*
X21255444Y-11353079D01*
X21255444Y-11353079D02*
X21255444Y-11362603D01*
X21255444Y-11362603D02*
X21245920Y-11381650D01*
X21245920Y-11381650D02*
X21236396Y-11391174D01*
X21236396Y-11391174D02*
X21217349Y-11400698D01*
X21217349Y-11400698D02*
X21179253Y-11400698D01*
X21179253Y-11400698D02*
X21160206Y-11410222D01*
X21160206Y-11410222D02*
X21150682Y-11419746D01*
X21150682Y-11419746D02*
X21141158Y-11438793D01*
X21141158Y-11438793D02*
X21141158Y-11476888D01*
X21141158Y-11476888D02*
X21150682Y-11495936D01*
X21150682Y-11495936D02*
X21160206Y-11505460D01*
X21160206Y-11505460D02*
X21179253Y-11514984D01*
X21179253Y-11514984D02*
X21217349Y-11514984D01*
X21217349Y-11514984D02*
X21236396Y-11505460D01*
X21236396Y-11505460D02*
X21245920Y-11495936D01*
X21245920Y-11495936D02*
X21255444Y-11476888D01*
X21255444Y-11476888D02*
X21255444Y-11438793D01*
X21255444Y-11438793D02*
X21245920Y-11419746D01*
X21245920Y-11419746D02*
X21236396Y-11410222D01*
X21236396Y-11410222D02*
X21217349Y-11400698D01*
X21331634Y-11314984D02*
X21331634Y-11353079D01*
X21407825Y-11314984D02*
X21407825Y-11353079D01*
X21703063Y-11591174D02*
X21693539Y-11581650D01*
X21693539Y-11581650D02*
X21674491Y-11553079D01*
X21674491Y-11553079D02*
X21664968Y-11534031D01*
X21664968Y-11534031D02*
X21655444Y-11505460D01*
X21655444Y-11505460D02*
X21645920Y-11457841D01*
X21645920Y-11457841D02*
X21645920Y-11419746D01*
X21645920Y-11419746D02*
X21655444Y-11372127D01*
X21655444Y-11372127D02*
X21664968Y-11343555D01*
X21664968Y-11343555D02*
X21674491Y-11324508D01*
X21674491Y-11324508D02*
X21693539Y-11295936D01*
X21693539Y-11295936D02*
X21703063Y-11286412D01*
X21769730Y-11334031D02*
X21779253Y-11324508D01*
X21779253Y-11324508D02*
X21798301Y-11314984D01*
X21798301Y-11314984D02*
X21845920Y-11314984D01*
X21845920Y-11314984D02*
X21864968Y-11324508D01*
X21864968Y-11324508D02*
X21874491Y-11334031D01*
X21874491Y-11334031D02*
X21884015Y-11353079D01*
X21884015Y-11353079D02*
X21884015Y-11372127D01*
X21884015Y-11372127D02*
X21874491Y-11400698D01*
X21874491Y-11400698D02*
X21760206Y-11514984D01*
X21760206Y-11514984D02*
X21884015Y-11514984D01*
X22122111Y-11514984D02*
X22122111Y-11314984D01*
X22207825Y-11514984D02*
X22207825Y-11410222D01*
X22207825Y-11410222D02*
X22198301Y-11391174D01*
X22198301Y-11391174D02*
X22179253Y-11381650D01*
X22179253Y-11381650D02*
X22150682Y-11381650D01*
X22150682Y-11381650D02*
X22131634Y-11391174D01*
X22131634Y-11391174D02*
X22122111Y-11400698D01*
X22331634Y-11514984D02*
X22312587Y-11505460D01*
X22312587Y-11505460D02*
X22303063Y-11495936D01*
X22303063Y-11495936D02*
X22293539Y-11476888D01*
X22293539Y-11476888D02*
X22293539Y-11419746D01*
X22293539Y-11419746D02*
X22303063Y-11400698D01*
X22303063Y-11400698D02*
X22312587Y-11391174D01*
X22312587Y-11391174D02*
X22331634Y-11381650D01*
X22331634Y-11381650D02*
X22360206Y-11381650D01*
X22360206Y-11381650D02*
X22379253Y-11391174D01*
X22379253Y-11391174D02*
X22388777Y-11400698D01*
X22388777Y-11400698D02*
X22398301Y-11419746D01*
X22398301Y-11419746D02*
X22398301Y-11476888D01*
X22398301Y-11476888D02*
X22388777Y-11495936D01*
X22388777Y-11495936D02*
X22379253Y-11505460D01*
X22379253Y-11505460D02*
X22360206Y-11514984D01*
X22360206Y-11514984D02*
X22331634Y-11514984D01*
X22512587Y-11514984D02*
X22493539Y-11505460D01*
X22493539Y-11505460D02*
X22484015Y-11486412D01*
X22484015Y-11486412D02*
X22484015Y-11314984D01*
X22664968Y-11505460D02*
X22645920Y-11514984D01*
X22645920Y-11514984D02*
X22607825Y-11514984D01*
X22607825Y-11514984D02*
X22588777Y-11505460D01*
X22588777Y-11505460D02*
X22579253Y-11486412D01*
X22579253Y-11486412D02*
X22579253Y-11410222D01*
X22579253Y-11410222D02*
X22588777Y-11391174D01*
X22588777Y-11391174D02*
X22607825Y-11381650D01*
X22607825Y-11381650D02*
X22645920Y-11381650D01*
X22645920Y-11381650D02*
X22664968Y-11391174D01*
X22664968Y-11391174D02*
X22674491Y-11410222D01*
X22674491Y-11410222D02*
X22674491Y-11429269D01*
X22674491Y-11429269D02*
X22579253Y-11448317D01*
X22750682Y-11505460D02*
X22769730Y-11514984D01*
X22769730Y-11514984D02*
X22807825Y-11514984D01*
X22807825Y-11514984D02*
X22826872Y-11505460D01*
X22826872Y-11505460D02*
X22836396Y-11486412D01*
X22836396Y-11486412D02*
X22836396Y-11476888D01*
X22836396Y-11476888D02*
X22826872Y-11457841D01*
X22826872Y-11457841D02*
X22807825Y-11448317D01*
X22807825Y-11448317D02*
X22779253Y-11448317D01*
X22779253Y-11448317D02*
X22760206Y-11438793D01*
X22760206Y-11438793D02*
X22750682Y-11419746D01*
X22750682Y-11419746D02*
X22750682Y-11410222D01*
X22750682Y-11410222D02*
X22760206Y-11391174D01*
X22760206Y-11391174D02*
X22779253Y-11381650D01*
X22779253Y-11381650D02*
X22807825Y-11381650D01*
X22807825Y-11381650D02*
X22826872Y-11391174D01*
X22903063Y-11591174D02*
X22912587Y-11581650D01*
X22912587Y-11581650D02*
X22931634Y-11553079D01*
X22931634Y-11553079D02*
X22941158Y-11534031D01*
X22941158Y-11534031D02*
X22950682Y-11505460D01*
X22950682Y-11505460D02*
X22960206Y-11457841D01*
X22960206Y-11457841D02*
X22960206Y-11419746D01*
X22960206Y-11419746D02*
X22950682Y-11372127D01*
X22950682Y-11372127D02*
X22941158Y-11343555D01*
X22941158Y-11343555D02*
X22931634Y-11324508D01*
X22931634Y-11324508D02*
X22912587Y-11295936D01*
X22912587Y-11295936D02*
X22903063Y-11286412D01*
D13*
X18128000Y-11687500D02*
G75*
G03*
X18128000Y-11687500I-20000J0D01*
G01*
D11*
X18426872Y-11578984D02*
X18445920Y-11578984D01*
X18445920Y-11578984D02*
X18464967Y-11588508D01*
X18464967Y-11588508D02*
X18474491Y-11598031D01*
X18474491Y-11598031D02*
X18484015Y-11617079D01*
X18484015Y-11617079D02*
X18493539Y-11655174D01*
X18493539Y-11655174D02*
X18493539Y-11702793D01*
X18493539Y-11702793D02*
X18484015Y-11740888D01*
X18484015Y-11740888D02*
X18474491Y-11759936D01*
X18474491Y-11759936D02*
X18464967Y-11769460D01*
X18464967Y-11769460D02*
X18445920Y-11778984D01*
X18445920Y-11778984D02*
X18426872Y-11778984D01*
X18426872Y-11778984D02*
X18407824Y-11769460D01*
X18407824Y-11769460D02*
X18398301Y-11759936D01*
X18398301Y-11759936D02*
X18388777Y-11740888D01*
X18388777Y-11740888D02*
X18379253Y-11702793D01*
X18379253Y-11702793D02*
X18379253Y-11655174D01*
X18379253Y-11655174D02*
X18388777Y-11617079D01*
X18388777Y-11617079D02*
X18398301Y-11598031D01*
X18398301Y-11598031D02*
X18407824Y-11588508D01*
X18407824Y-11588508D02*
X18426872Y-11578984D01*
X18579253Y-11759936D02*
X18588777Y-11769460D01*
X18588777Y-11769460D02*
X18579253Y-11778984D01*
X18579253Y-11778984D02*
X18569729Y-11769460D01*
X18569729Y-11769460D02*
X18579253Y-11759936D01*
X18579253Y-11759936D02*
X18579253Y-11778984D01*
X18760205Y-11645650D02*
X18760205Y-11778984D01*
X18712586Y-11569460D02*
X18664967Y-11712317D01*
X18664967Y-11712317D02*
X18788777Y-11712317D01*
X18903063Y-11578984D02*
X18922110Y-11578984D01*
X18922110Y-11578984D02*
X18941158Y-11588508D01*
X18941158Y-11588508D02*
X18950682Y-11598031D01*
X18950682Y-11598031D02*
X18960205Y-11617079D01*
X18960205Y-11617079D02*
X18969729Y-11655174D01*
X18969729Y-11655174D02*
X18969729Y-11702793D01*
X18969729Y-11702793D02*
X18960205Y-11740888D01*
X18960205Y-11740888D02*
X18950682Y-11759936D01*
X18950682Y-11759936D02*
X18941158Y-11769460D01*
X18941158Y-11769460D02*
X18922110Y-11778984D01*
X18922110Y-11778984D02*
X18903063Y-11778984D01*
X18903063Y-11778984D02*
X18884015Y-11769460D01*
X18884015Y-11769460D02*
X18874491Y-11759936D01*
X18874491Y-11759936D02*
X18864967Y-11740888D01*
X18864967Y-11740888D02*
X18855444Y-11702793D01*
X18855444Y-11702793D02*
X18855444Y-11655174D01*
X18855444Y-11655174D02*
X18864967Y-11617079D01*
X18864967Y-11617079D02*
X18874491Y-11598031D01*
X18874491Y-11598031D02*
X18884015Y-11588508D01*
X18884015Y-11588508D02*
X18903063Y-11578984D01*
X19093539Y-11578984D02*
X19112586Y-11578984D01*
X19112586Y-11578984D02*
X19131634Y-11588508D01*
X19131634Y-11588508D02*
X19141158Y-11598031D01*
X19141158Y-11598031D02*
X19150682Y-11617079D01*
X19150682Y-11617079D02*
X19160205Y-11655174D01*
X19160205Y-11655174D02*
X19160205Y-11702793D01*
X19160205Y-11702793D02*
X19150682Y-11740888D01*
X19150682Y-11740888D02*
X19141158Y-11759936D01*
X19141158Y-11759936D02*
X19131634Y-11769460D01*
X19131634Y-11769460D02*
X19112586Y-11778984D01*
X19112586Y-11778984D02*
X19093539Y-11778984D01*
X19093539Y-11778984D02*
X19074491Y-11769460D01*
X19074491Y-11769460D02*
X19064967Y-11759936D01*
X19064967Y-11759936D02*
X19055444Y-11740888D01*
X19055444Y-11740888D02*
X19045920Y-11702793D01*
X19045920Y-11702793D02*
X19045920Y-11655174D01*
X19045920Y-11655174D02*
X19055444Y-11617079D01*
X19055444Y-11617079D02*
X19064967Y-11598031D01*
X19064967Y-11598031D02*
X19074491Y-11588508D01*
X19074491Y-11588508D02*
X19093539Y-11578984D01*
X19245920Y-11778984D02*
X19245920Y-11645650D01*
X19245920Y-11664698D02*
X19255444Y-11655174D01*
X19255444Y-11655174D02*
X19274491Y-11645650D01*
X19274491Y-11645650D02*
X19303063Y-11645650D01*
X19303063Y-11645650D02*
X19322110Y-11655174D01*
X19322110Y-11655174D02*
X19331634Y-11674222D01*
X19331634Y-11674222D02*
X19331634Y-11778984D01*
X19331634Y-11674222D02*
X19341158Y-11655174D01*
X19341158Y-11655174D02*
X19360205Y-11645650D01*
X19360205Y-11645650D02*
X19388777Y-11645650D01*
X19388777Y-11645650D02*
X19407825Y-11655174D01*
X19407825Y-11655174D02*
X19417348Y-11674222D01*
X19417348Y-11674222D02*
X19417348Y-11778984D01*
X19512586Y-11778984D02*
X19512586Y-11645650D01*
X19512586Y-11664698D02*
X19522110Y-11655174D01*
X19522110Y-11655174D02*
X19541158Y-11645650D01*
X19541158Y-11645650D02*
X19569729Y-11645650D01*
X19569729Y-11645650D02*
X19588777Y-11655174D01*
X19588777Y-11655174D02*
X19598301Y-11674222D01*
X19598301Y-11674222D02*
X19598301Y-11778984D01*
X19598301Y-11674222D02*
X19607825Y-11655174D01*
X19607825Y-11655174D02*
X19626872Y-11645650D01*
X19626872Y-11645650D02*
X19655444Y-11645650D01*
X19655444Y-11645650D02*
X19674491Y-11655174D01*
X19674491Y-11655174D02*
X19684015Y-11674222D01*
X19684015Y-11674222D02*
X19684015Y-11778984D01*
X20074491Y-11569460D02*
X19903063Y-11826603D01*
X20331634Y-11578984D02*
X20350682Y-11578984D01*
X20350682Y-11578984D02*
X20369729Y-11588508D01*
X20369729Y-11588508D02*
X20379253Y-11598031D01*
X20379253Y-11598031D02*
X20388777Y-11617079D01*
X20388777Y-11617079D02*
X20398301Y-11655174D01*
X20398301Y-11655174D02*
X20398301Y-11702793D01*
X20398301Y-11702793D02*
X20388777Y-11740888D01*
X20388777Y-11740888D02*
X20379253Y-11759936D01*
X20379253Y-11759936D02*
X20369729Y-11769460D01*
X20369729Y-11769460D02*
X20350682Y-11778984D01*
X20350682Y-11778984D02*
X20331634Y-11778984D01*
X20331634Y-11778984D02*
X20312587Y-11769460D01*
X20312587Y-11769460D02*
X20303063Y-11759936D01*
X20303063Y-11759936D02*
X20293539Y-11740888D01*
X20293539Y-11740888D02*
X20284015Y-11702793D01*
X20284015Y-11702793D02*
X20284015Y-11655174D01*
X20284015Y-11655174D02*
X20293539Y-11617079D01*
X20293539Y-11617079D02*
X20303063Y-11598031D01*
X20303063Y-11598031D02*
X20312587Y-11588508D01*
X20312587Y-11588508D02*
X20331634Y-11578984D01*
X20484015Y-11759936D02*
X20493539Y-11769460D01*
X20493539Y-11769460D02*
X20484015Y-11778984D01*
X20484015Y-11778984D02*
X20474491Y-11769460D01*
X20474491Y-11769460D02*
X20484015Y-11759936D01*
X20484015Y-11759936D02*
X20484015Y-11778984D01*
X20617348Y-11578984D02*
X20636396Y-11578984D01*
X20636396Y-11578984D02*
X20655444Y-11588508D01*
X20655444Y-11588508D02*
X20664968Y-11598031D01*
X20664968Y-11598031D02*
X20674491Y-11617079D01*
X20674491Y-11617079D02*
X20684015Y-11655174D01*
X20684015Y-11655174D02*
X20684015Y-11702793D01*
X20684015Y-11702793D02*
X20674491Y-11740888D01*
X20674491Y-11740888D02*
X20664968Y-11759936D01*
X20664968Y-11759936D02*
X20655444Y-11769460D01*
X20655444Y-11769460D02*
X20636396Y-11778984D01*
X20636396Y-11778984D02*
X20617348Y-11778984D01*
X20617348Y-11778984D02*
X20598301Y-11769460D01*
X20598301Y-11769460D02*
X20588777Y-11759936D01*
X20588777Y-11759936D02*
X20579253Y-11740888D01*
X20579253Y-11740888D02*
X20569729Y-11702793D01*
X20569729Y-11702793D02*
X20569729Y-11655174D01*
X20569729Y-11655174D02*
X20579253Y-11617079D01*
X20579253Y-11617079D02*
X20588777Y-11598031D01*
X20588777Y-11598031D02*
X20598301Y-11588508D01*
X20598301Y-11588508D02*
X20617348Y-11578984D01*
X20874491Y-11778984D02*
X20760206Y-11778984D01*
X20817348Y-11778984D02*
X20817348Y-11578984D01*
X20817348Y-11578984D02*
X20798301Y-11607555D01*
X20798301Y-11607555D02*
X20779253Y-11626603D01*
X20779253Y-11626603D02*
X20760206Y-11636127D01*
X21055444Y-11578984D02*
X20960206Y-11578984D01*
X20960206Y-11578984D02*
X20950682Y-11674222D01*
X20950682Y-11674222D02*
X20960206Y-11664698D01*
X20960206Y-11664698D02*
X20979253Y-11655174D01*
X20979253Y-11655174D02*
X21026872Y-11655174D01*
X21026872Y-11655174D02*
X21045920Y-11664698D01*
X21045920Y-11664698D02*
X21055444Y-11674222D01*
X21055444Y-11674222D02*
X21064968Y-11693269D01*
X21064968Y-11693269D02*
X21064968Y-11740888D01*
X21064968Y-11740888D02*
X21055444Y-11759936D01*
X21055444Y-11759936D02*
X21045920Y-11769460D01*
X21045920Y-11769460D02*
X21026872Y-11778984D01*
X21026872Y-11778984D02*
X20979253Y-11778984D01*
X20979253Y-11778984D02*
X20960206Y-11769460D01*
X20960206Y-11769460D02*
X20950682Y-11759936D01*
X21131634Y-11578984D02*
X21264968Y-11578984D01*
X21264968Y-11578984D02*
X21179253Y-11778984D01*
X21331634Y-11578984D02*
X21331634Y-11617079D01*
X21407825Y-11578984D02*
X21407825Y-11617079D01*
X21703063Y-11855174D02*
X21693539Y-11845650D01*
X21693539Y-11845650D02*
X21674491Y-11817079D01*
X21674491Y-11817079D02*
X21664968Y-11798031D01*
X21664968Y-11798031D02*
X21655444Y-11769460D01*
X21655444Y-11769460D02*
X21645920Y-11721841D01*
X21645920Y-11721841D02*
X21645920Y-11683746D01*
X21645920Y-11683746D02*
X21655444Y-11636127D01*
X21655444Y-11636127D02*
X21664968Y-11607555D01*
X21664968Y-11607555D02*
X21674491Y-11588508D01*
X21674491Y-11588508D02*
X21693539Y-11559936D01*
X21693539Y-11559936D02*
X21703063Y-11550412D01*
X21864968Y-11578984D02*
X21826872Y-11578984D01*
X21826872Y-11578984D02*
X21807825Y-11588508D01*
X21807825Y-11588508D02*
X21798301Y-11598031D01*
X21798301Y-11598031D02*
X21779253Y-11626603D01*
X21779253Y-11626603D02*
X21769730Y-11664698D01*
X21769730Y-11664698D02*
X21769730Y-11740888D01*
X21769730Y-11740888D02*
X21779253Y-11759936D01*
X21779253Y-11759936D02*
X21788777Y-11769460D01*
X21788777Y-11769460D02*
X21807825Y-11778984D01*
X21807825Y-11778984D02*
X21845920Y-11778984D01*
X21845920Y-11778984D02*
X21864968Y-11769460D01*
X21864968Y-11769460D02*
X21874491Y-11759936D01*
X21874491Y-11759936D02*
X21884015Y-11740888D01*
X21884015Y-11740888D02*
X21884015Y-11693269D01*
X21884015Y-11693269D02*
X21874491Y-11674222D01*
X21874491Y-11674222D02*
X21864968Y-11664698D01*
X21864968Y-11664698D02*
X21845920Y-11655174D01*
X21845920Y-11655174D02*
X21807825Y-11655174D01*
X21807825Y-11655174D02*
X21788777Y-11664698D01*
X21788777Y-11664698D02*
X21779253Y-11674222D01*
X21779253Y-11674222D02*
X21769730Y-11693269D01*
X21979253Y-11778984D02*
X22017349Y-11778984D01*
X22017349Y-11778984D02*
X22036396Y-11769460D01*
X22036396Y-11769460D02*
X22045920Y-11759936D01*
X22045920Y-11759936D02*
X22064968Y-11731365D01*
X22064968Y-11731365D02*
X22074491Y-11693269D01*
X22074491Y-11693269D02*
X22074491Y-11617079D01*
X22074491Y-11617079D02*
X22064968Y-11598031D01*
X22064968Y-11598031D02*
X22055444Y-11588508D01*
X22055444Y-11588508D02*
X22036396Y-11578984D01*
X22036396Y-11578984D02*
X21998301Y-11578984D01*
X21998301Y-11578984D02*
X21979253Y-11588508D01*
X21979253Y-11588508D02*
X21969730Y-11598031D01*
X21969730Y-11598031D02*
X21960206Y-11617079D01*
X21960206Y-11617079D02*
X21960206Y-11664698D01*
X21960206Y-11664698D02*
X21969730Y-11683746D01*
X21969730Y-11683746D02*
X21979253Y-11693269D01*
X21979253Y-11693269D02*
X21998301Y-11702793D01*
X21998301Y-11702793D02*
X22036396Y-11702793D01*
X22036396Y-11702793D02*
X22055444Y-11693269D01*
X22055444Y-11693269D02*
X22064968Y-11683746D01*
X22064968Y-11683746D02*
X22074491Y-11664698D01*
X22312587Y-11778984D02*
X22312587Y-11578984D01*
X22398301Y-11778984D02*
X22398301Y-11674222D01*
X22398301Y-11674222D02*
X22388777Y-11655174D01*
X22388777Y-11655174D02*
X22369730Y-11645650D01*
X22369730Y-11645650D02*
X22341158Y-11645650D01*
X22341158Y-11645650D02*
X22322111Y-11655174D01*
X22322111Y-11655174D02*
X22312587Y-11664698D01*
X22522110Y-11778984D02*
X22503063Y-11769460D01*
X22503063Y-11769460D02*
X22493539Y-11759936D01*
X22493539Y-11759936D02*
X22484015Y-11740888D01*
X22484015Y-11740888D02*
X22484015Y-11683746D01*
X22484015Y-11683746D02*
X22493539Y-11664698D01*
X22493539Y-11664698D02*
X22503063Y-11655174D01*
X22503063Y-11655174D02*
X22522110Y-11645650D01*
X22522110Y-11645650D02*
X22550682Y-11645650D01*
X22550682Y-11645650D02*
X22569730Y-11655174D01*
X22569730Y-11655174D02*
X22579253Y-11664698D01*
X22579253Y-11664698D02*
X22588777Y-11683746D01*
X22588777Y-11683746D02*
X22588777Y-11740888D01*
X22588777Y-11740888D02*
X22579253Y-11759936D01*
X22579253Y-11759936D02*
X22569730Y-11769460D01*
X22569730Y-11769460D02*
X22550682Y-11778984D01*
X22550682Y-11778984D02*
X22522110Y-11778984D01*
X22703063Y-11778984D02*
X22684015Y-11769460D01*
X22684015Y-11769460D02*
X22674491Y-11750412D01*
X22674491Y-11750412D02*
X22674491Y-11578984D01*
X22855444Y-11769460D02*
X22836396Y-11778984D01*
X22836396Y-11778984D02*
X22798301Y-11778984D01*
X22798301Y-11778984D02*
X22779253Y-11769460D01*
X22779253Y-11769460D02*
X22769730Y-11750412D01*
X22769730Y-11750412D02*
X22769730Y-11674222D01*
X22769730Y-11674222D02*
X22779253Y-11655174D01*
X22779253Y-11655174D02*
X22798301Y-11645650D01*
X22798301Y-11645650D02*
X22836396Y-11645650D01*
X22836396Y-11645650D02*
X22855444Y-11655174D01*
X22855444Y-11655174D02*
X22864968Y-11674222D01*
X22864968Y-11674222D02*
X22864968Y-11693269D01*
X22864968Y-11693269D02*
X22769730Y-11712317D01*
X22941158Y-11769460D02*
X22960206Y-11778984D01*
X22960206Y-11778984D02*
X22998301Y-11778984D01*
X22998301Y-11778984D02*
X23017349Y-11769460D01*
X23017349Y-11769460D02*
X23026872Y-11750412D01*
X23026872Y-11750412D02*
X23026872Y-11740888D01*
X23026872Y-11740888D02*
X23017349Y-11721841D01*
X23017349Y-11721841D02*
X22998301Y-11712317D01*
X22998301Y-11712317D02*
X22969730Y-11712317D01*
X22969730Y-11712317D02*
X22950682Y-11702793D01*
X22950682Y-11702793D02*
X22941158Y-11683746D01*
X22941158Y-11683746D02*
X22941158Y-11674222D01*
X22941158Y-11674222D02*
X22950682Y-11655174D01*
X22950682Y-11655174D02*
X22969730Y-11645650D01*
X22969730Y-11645650D02*
X22998301Y-11645650D01*
X22998301Y-11645650D02*
X23017349Y-11655174D01*
X23093539Y-11855174D02*
X23103063Y-11845650D01*
X23103063Y-11845650D02*
X23122111Y-11817079D01*
X23122111Y-11817079D02*
X23131634Y-11798031D01*
X23131634Y-11798031D02*
X23141158Y-11769460D01*
X23141158Y-11769460D02*
X23150682Y-11721841D01*
X23150682Y-11721841D02*
X23150682Y-11683746D01*
X23150682Y-11683746D02*
X23141158Y-11636127D01*
X23141158Y-11636127D02*
X23131634Y-11607555D01*
X23131634Y-11607555D02*
X23122111Y-11588508D01*
X23122111Y-11588508D02*
X23103063Y-11559936D01*
X23103063Y-11559936D02*
X23093539Y-11550412D01*
M02*
